<svg version="1.2" xmlns="http://www.w3.org/2000/svg" viewBox="0 0 500 377" width="500" height="377">
	<title>404-svg</title>
	<style>
		.s0 { fill: #f5f5f5 } 
		.s1 { fill: #eeeeee } 
		.s2 { fill: #263238 } 
		.s3 { fill: #6abcff } 
		.s4 { opacity: .3;fill: #6abcff } 
		.s5 { fill: #ffffff } 
		.s6 { opacity: .3;fill: #ffffff } 
		.s7 { opacity: .2;fill: #000000 } 
	</style>
	<g id="freepik--Shadow--inject-2">
		<path id="freepik--path--inject-2" class="s0" d="m250 358.6c-107.2 0-193.9-5.1-193.9-11.4 0-6.2 86.7-11.3 193.9-11.3 107.2 0 193.9 5.1 193.9 11.3 0 6.3-86.7 11.4-193.9 11.4z"/>
	</g>
	<g id="freepik--oops--inject-2">
		<path id="Layer" fill-rule="evenodd" class="s1" d="m86.7 51.7q-1.5-6.7 1.4-11.2c1.9-3 5-5 9.4-6 4.4-1 8.2-0.6 11.2 1.3 3 1.8 5 5 6 9.3q0.2 1 0.4 2 0.1 1 0.1 2 0.1 1.1 0 2.1-0.1 1-0.4 2-0.2 0.8-0.5 1.6-0.3 0.8-0.8 1.5-0.4 0.8-1 1.4-0.5 0.7-1.2 1.3-0.8 0.6-1.6 1.1-0.8 0.6-1.7 1-0.9 0.4-1.9 0.7-0.9 0.4-1.9 0.5-1 0.3-2 0.4-0.9 0.2-1.9 0.2-1 0.1-2 0-1-0.1-2-0.3-0.8-0.2-1.6-0.5-0.9-0.4-1.6-0.8-0.8-0.4-1.4-1-0.7-0.5-1.3-1.2-0.7-0.8-1.3-1.7-0.6-0.8-1-1.8-0.5-0.9-0.8-1.9-0.4-1-0.6-2zm8.4-1.9q0.9 4.1 2.8 5.5 1 0.7 2.2 0.9 1.2 0.2 2.4 0 1.1-0.3 2.1-1 1-0.7 1.6-1.7 1.1-2.1 0.1-6.6-0.9-3.9-2.9-5.3-0.4-0.3-1-0.5-0.5-0.3-1.1-0.4-0.6-0.1-1.2-0.1-0.6 0.1-1.2 0.2-0.6 0.1-1.1 0.4-0.6 0.2-1 0.6-0.5 0.3-0.9 0.8-0.4 0.4-0.7 0.9c-0.7 1.5-0.8 3.5-0.1 6.3z"/>
		<path id="Layer" fill-rule="evenodd" class="s1" d="m118.6 48.3q-0.3-1-0.3-2-0.1-1.1 0.1-2.1 0.2-1.1 0.6-2 0.4-1 0.9-1.9 0.7-0.9 1.5-1.7 0.8-0.8 1.8-1.4 1-0.6 2-1.1 1.1-0.4 2.2-0.6 5.9-1.3 9.7 1.4c1 0.8 1.9 1.8 2.6 3 0.7 1.1 1.2 2.4 1.4 3.7 0.3 1.3 0.3 2.6 0 3.9-0.2 1.3-0.7 2.6-1.4 3.7q-2.3 3.6-7.6 4.8-1 0.2-2.1 0.3-1 0.1-2 0.1-1.1-0.1-2.1-0.4-1-0.3-2-0.7-1-0.5-1.9-1.2-0.9-0.7-1.6-1.6-0.7-1-1.1-2-0.5-1-0.7-2.2zm7.5-1.7q0.1 0.5 0.2 1 0.2 0.5 0.4 1 0.3 0.5 0.6 0.9 0.3 0.4 0.7 0.7 0.7 0.5 1.4 0.7 0.8 0.2 1.6 0 0.7-0.2 1.4-0.7 0.6-0.4 1-1.1 0.2-0.5 0.3-1.1 0.1-0.5 0.1-1 0-0.6-0.1-1.1 0-0.5-0.2-1-0.1-0.5-0.2-1-0.2-0.5-0.4-1-0.3-0.4-0.6-0.8-0.3-0.4-0.7-0.8-0.3-0.2-0.7-0.4-0.3-0.2-0.7-0.2-0.3-0.1-0.7-0.1-0.4 0-0.8 0.1-0.4 0.1-0.7 0.2-0.4 0.2-0.7 0.4-0.3 0.3-0.6 0.6-0.2 0.3-0.4 0.6-0.2 0.5-0.3 1-0.1 0.5-0.2 1.1 0 0.5 0.1 1 0 0.5 0.2 1z"/>
		<path id="Layer" fill-rule="evenodd" class="s1" d="m148.6 59.6l-6.1-27 7-1.6 0.6 2.9q0.2-0.5 0.4-0.9 0.2-0.4 0.5-0.8 0.3-0.4 0.6-0.7 0.3-0.4 0.6-0.7 0.4-0.3 0.8-0.6 0.4-0.3 0.8-0.5 0.5-0.2 0.9-0.3 0.5-0.2 1-0.3 0.8-0.2 1.7-0.3 0.9 0 1.8 0.2 0.9 0.3 1.7 0.7 0.8 0.4 1.5 1 0.7 0.7 1.3 1.5 0.7 0.8 1.2 1.7 0.4 0.9 0.8 1.8 0.3 1 0.5 2 1.1 4.8-0.6 8-0.4 0.7-1 1.3-0.6 0.7-1.3 1.2-0.6 0.5-1.4 0.8-0.8 0.4-1.6 0.6-0.5 0.1-0.9 0.1-0.4 0.1-0.8 0.1-0.4 0-0.8 0-0.4 0-0.8-0.1-0.4-0.1-0.8-0.2-0.4-0.1-0.8-0.2-0.3-0.2-0.7-0.4-0.3-0.2-0.7-0.4l2.1 9.3zm3.7-18.8q0 0.5 0.2 0.9 0.1 0.4 0.3 0.9 0.3 0.4 0.6 0.7 0.3 0.4 0.6 0.7 0.3 0.2 0.6 0.4 0.4 0.1 0.7 0.2 0.4 0.1 0.7 0.1 0.4 0 0.7-0.1 0.4-0.1 0.7-0.2 0.3-0.2 0.5-0.4 0.3-0.2 0.5-0.4 0.2-0.3 0.3-0.6 0.2-0.5 0.3-1 0-0.4 0-0.9 0-0.5 0-1-0.1-0.5-0.3-1 0-0.4-0.2-0.9-0.1-0.4-0.3-0.8-0.3-0.5-0.6-0.8-0.2-0.4-0.6-0.7-0.2-0.3-0.5-0.4-0.3-0.2-0.7-0.2-0.3-0.1-0.6-0.1-0.4 0-0.7 0.1-0.3 0-0.6 0.2-0.4 0.1-0.6 0.4-0.3 0.2-0.5 0.4-0.3 0.3-0.4 0.6-0.2 0.5-0.3 1-0.1 0.5-0.1 0.9 0 0.5 0 1 0.1 0.5 0.3 1z"/>
		<path id="Layer" class="s1" d="m169.4 41.3l7.3-2.4q0.2 0.3 0.3 0.5 0.2 0.2 0.4 0.4 0.3 0.3 0.5 0.4 0.3 0.2 0.5 0.3 0.6 0.2 1.2 0.2 0.6 0 1.2-0.1 0.6-0.2 1.2-0.5 0.5-0.3 1-0.7 0.1-0.1 0.2-0.3 0.1-0.1 0.1-0.3 0.1-0.2 0.1-0.4 0-0.2-0.1-0.3 0-0.2-0.1-0.4-0.1-0.2-0.3-0.3-0.1-0.2-0.3-0.3-0.2-0.1-0.4-0.1-0.4 0-0.8-0.1-0.5 0-0.9 0-0.4 0-0.9 0-0.4 0.1-0.8 0.1-0.7 0.1-1.4 0.1-0.7 0-1.5 0-0.7 0-1.4 0-0.7 0-1.4-0.1-0.4-0.1-0.8-0.2-0.4-0.1-0.8-0.3-0.4-0.1-0.7-0.4-0.4-0.2-0.7-0.5-0.7-0.6-1.1-1.3-0.5-0.8-0.7-1.7-0.2-0.9-0.1-1.8 0.1-0.8 0.5-1.7 0.2-0.4 0.5-0.8 0.3-0.4 0.6-0.7 0.3-0.4 0.7-0.7 0.4-0.3 0.8-0.5 0.6-0.4 1.2-0.7 0.7-0.3 1.3-0.5 0.7-0.2 1.3-0.4 0.7-0.2 1.4-0.3 0.6-0.2 1.2-0.3 0.7-0.2 1.4-0.3 0.6 0 1.3-0.1 0.7 0 1.3 0 0.4 0 0.9 0.1 0.4 0.1 0.8 0.2 0.4 0.2 0.8 0.3 0.3 0.2 0.7 0.4 0.4 0.3 0.7 0.6 0.4 0.3 0.7 0.6 0.3 0.3 0.6 0.7 0.3 0.4 0.5 0.7l-7 2.4q-0.1-0.2-0.2-0.4-0.1-0.2-0.3-0.3-0.1-0.2-0.3-0.3-0.2-0.1-0.4-0.2-0.3-0.1-0.6-0.2-0.2 0-0.5 0-0.3-0.1-0.6 0-0.3 0-0.6 0.1-0.2 0-0.5 0.1-0.2 0.1-0.4 0.2-0.2 0.1-0.4 0.2-0.2 0.2-0.4 0.4-0.1 0.1-0.2 0.2-0.1 0.2-0.1 0.3-0.1 0.2-0.1 0.3 0 0.2 0 0.4 0.1 0.1 0.2 0.3 0.1 0.2 0.2 0.3 0.1 0.1 0.3 0.2 0.2 0.1 0.3 0.1 0.5 0 0.9 0.1 0.4 0 0.8 0 0.5 0 0.9-0.1 0.4 0 0.8-0.1 0.7-0.1 1.5-0.1 0.7-0.1 1.4-0.1 0.7 0 1.5 0 0.7 0.1 1.4 0.1 0.5 0.1 0.9 0.2 0.5 0.2 0.9 0.4 0.4 0.1 0.8 0.4 0.4 0.2 0.7 0.6 0.3 0.2 0.6 0.6 0.2 0.3 0.5 0.6 0.2 0.4 0.3 0.8 0.2 0.4 0.3 0.8 0.1 0.4 0.1 0.9 0 0.4 0 0.9 0 0.4-0.1 0.9-0.1 0.4-0.3 0.8-0.2 0.5-0.5 1-0.2 0.4-0.6 0.9-0.3 0.4-0.7 0.7-0.4 0.4-0.8 0.7-0.7 0.4-1.4 0.8-0.7 0.4-1.4 0.6-0.7 0.3-1.5 0.6-0.7 0.2-1.5 0.3-5.4 1.2-8 0.2-0.7-0.2-1.2-0.6-0.6-0.4-1.1-0.9-0.5-0.4-0.9-1-0.4-0.6-0.7-1.2z"/>
		<path id="Layer" class="s1" d="m193.8 16.6h8.3v6.3l-1.6 12.6h-5l-1.7-12.6zm0.4 20.9h7.7v6.7h-7.7z"/>
	</g>
	<g id="freepik--error-404--inject-2">
		<path id="Layer" fill-rule="evenodd" class="s2" d="m128.7 102.6h-0.2c-4.5-1.8-7.2-3.5-8.6-5.5q-0.4 0.1-0.8 0.1-0.4 0-0.8-0.1-0.5 0-0.8-0.2-0.4-0.1-0.8-0.3-0.5-0.2-0.9-0.5-0.4-0.2-0.7-0.6-0.4-0.3-0.7-0.7-0.3-0.4-0.5-0.8-0.3 0.2-0.6 0.3-0.3 0.2-0.6 0.2-0.3 0.1-0.6 0-0.3 0-0.6-0.1-0.5-0.2-0.9-0.4-0.4-0.3-0.8-0.6-0.4-0.3-0.7-0.6-0.4-0.4-0.6-0.8-0.2 0.1-0.4 0.2-0.2 0.1-0.4 0.1-0.2 0.1-0.4 0.1-0.2 0-0.4 0c-3-0.2-7-6.1-7.3-12.4q0-0.1 0.1-0.2 0-0.1 0.1-0.2 0-0.1 0.1-0.1 0.1-0.1 0.2-0.1 0.1 0 0.2 0.1 0.1 0 0.2 0.1 0 0 0.1 0.1 0 0.1 0 0.2c0.3 6 4.1 11.3 6.4 11.5q0.1 0 0.2 0 0.2 0 0.3 0 0.1-0.1 0.2-0.1 0.1-0.1 0.2-0.2-0.6-1-0.9-2.2-0.4-1.2-0.5-2.4-0.1-1.2 0-2.4 0.1-1.2 0.4-2.4c0.9-3 1.6-4.2 2.6-4 1.7 0.5 1.5 7 0.5 11.3q0 0.3-0.1 0.6-0.1 0.3-0.2 0.5-0.1 0.3-0.2 0.6-0.1 0.2-0.3 0.5 0.2 0.4 0.5 0.7 0.3 0.3 0.6 0.6 0.3 0.3 0.7 0.5 0.4 0.2 0.7 0.4 0.3 0.1 0.5 0.1 0.2 0 0.4 0 0.3-0.1 0.5-0.2 0.2-0.1 0.3-0.2c-0.8-2-1-4.6 0.1-8 1.4-4.4 2-4.5 2.4-4.6q0 0 0.1 0 0.1 0 0.2 0 0.1 0 0.2 0.1 0 0 0.1 0.1c0.9 1.1-0.2 7.9-1.3 11.3q-0.1 0.2-0.2 0.3 0 0.2-0.1 0.3-0.1 0.2-0.1 0.3-0.1 0.2-0.2 0.3 0.2 0.4 0.5 0.8 0.2 0.3 0.5 0.7 0.3 0.3 0.7 0.5 0.4 0.3 0.8 0.5 0.2 0.1 0.5 0.2 0.3 0.1 0.6 0.2 0.3 0 0.6 0 0.3 0.1 0.6 0-0.2-0.3-0.3-0.5c-0.8-2.2-0.4-4.7 1.2-7.6 1-2 1.9-2.9 2.7-2.9q0.2 0 0.3 0 0.2 0.1 0.3 0.2 0.1 0.1 0.2 0.2 0.1 0.1 0.2 0.3c0.9 1.6 0.2 6.9-1.5 9.5q-0.1 0.2-0.3 0.4-0.2 0.3-0.4 0.4-0.2 0.2-0.4 0.4-0.2 0.1-0.5 0.2c1.3 1.8 3.9 3.3 8 4.9q0.1 0 0.2 0.1 0 0.1 0.1 0.2 0 0.1 0 0.2 0 0.1 0 0.1 0 0.1-0.1 0.2 0 0.1-0.1 0.1-0.1 0-0.2 0.1 0 0-0.1 0zm-5.7-16.5c0 0-0.6 0-1.8 2.4-1.5 2.6-1.8 4.8-1.2 6.7q0.1 0.1 0.1 0.2 0 0.1 0.1 0.2 0 0 0.1 0.1 0 0.1 0 0.2 0.2-0.1 0.4-0.2 0.2-0.1 0.4-0.3 0.2-0.1 0.3-0.3 0.1-0.1 0.3-0.3c1.4-2.2 2-6.6 1.5-8.3-0.1-0.3-0.2-0.4-0.2-0.4zm-7.2-4.2q-0.2 0.4-0.4 0.9-0.2 0.4-0.3 0.8-0.2 0.5-0.3 0.9-0.2 0.5-0.3 0.9-0.3 0.8-0.5 1.6-0.1 0.8-0.2 1.7 0 0.8 0 1.6 0.1 0.9 0.3 1.7l0.1-0.3q0.4-1.2 0.7-2.4 0.3-1.2 0.5-2.4 0.2-1.3 0.3-2.5 0.1-1.2 0.2-2.5zm-6.6-3.1c-0.2 0.1-0.7 0.7-1.4 3.2q-0.3 1-0.4 2-0.1 1.1 0 2.2 0.1 1 0.4 2 0.3 1.1 0.7 2 0.1-0.2 0.2-0.3 0.1-0.2 0.1-0.4 0.1-0.2 0.1-0.3 0.1-0.2 0.1-0.4c1.1-4.9 0.8-9.3 0.2-10z"/>
		<path id="Layer" fill-rule="evenodd" class="s2" d="m166.7 155q-0.6 0-1.2-0.1-0.6 0-1.2-0.2-0.5-0.1-1.1-0.4-0.5-0.2-1.1-0.5 0 0-0.1-0.1-0.1-0.1-0.1-0.2 0-0.1 0-0.2 0-0.1 0.1-0.2 0-0.1 0.1-0.1 0.1-0.1 0.2-0.1 0.1 0 0.2 0 0.1 0 0.1 0.1c3.6 2 8.2 0.6 9.2-0.9q0-0.1 0.1-0.2 0-0.1 0-0.2 0-0.1 0-0.1 0-0.1 0-0.2-0.7 0-1.3-0.1-0.7 0-1.4-0.2-0.6-0.2-1.2-0.5-0.7-0.3-1.2-0.7c-2.6-1.6-2.8-2-2.7-2.4q0-0.1 0-0.2 0-0.1 0.1-0.1 0-0.1 0.1-0.2 0 0 0.1 0c1-0.5 5.5 1.5 7.4 2.8q0.1 0 0.2 0.1 0 0 0.1 0.1 0.1 0.1 0.2 0.1 0 0.1 0.1 0.2 0.3-0.1 0.5-0.2 0.3-0.1 0.6-0.2 0.2-0.2 0.4-0.4 0.2-0.1 0.4-0.4 0.1-0.1 0.2-0.2 0.1-0.1 0.2-0.3 0-0.1 0.1-0.3 0.1-0.1 0.1-0.3h-0.2c-1.6 0.2-3.2-0.5-4.9-2.1-1.2-1.1-1.6-1.8-1.5-2.4q0-0.1 0.1-0.3 0.1-0.1 0.2-0.2 0.1 0 0.2-0.1 0.1 0 0.2-0.1c1.4-0.3 4.8 1.1 6.2 2.7q0.1 0.1 0.2 0.2 0.1 0.2 0.2 0.3 0.1 0.2 0.2 0.3 0 0.2 0.1 0.4c1.3-0.7 2.7-2 4.3-4.3q0-0.1 0.1-0.2 0.1 0 0.2 0 0.1 0 0.2 0 0.1 0 0.2 0.1 0.1 0 0.1 0.1 0.1 0.1 0.1 0.2 0 0.1 0 0.2 0 0.1-0.1 0.2c-1.9 2.6-3.5 4.1-5 4.7q-0.1 0.3-0.2 0.6 0 0.2-0.1 0.5-0.1 0.2-0.3 0.5-0.1 0.2-0.3 0.4-0.2 0.3-0.5 0.5-0.2 0.2-0.5 0.4-0.3 0.2-0.6 0.3-0.3 0.1-0.6 0.2 0 0.2 0 0.4 0 0.2 0 0.3 0 0.2-0.1 0.4-0.1 0.2-0.2 0.3c-0.8 1.4-3.2 2.5-5.9 2.5zm-0.9-6.9c0.4 0.2 0.8 0.5 1.5 1q0.4 0.2 0.9 0.5 0.4 0.2 0.8 0.3 0.5 0.2 1 0.3 0.4 0.1 0.9 0.2-0.6-0.4-1.2-0.7-0.6-0.3-1.3-0.6-0.6-0.3-1.3-0.6-0.6-0.2-1.3-0.4zm3.5-4.3q0.1 0.2 0.2 0.4 0.2 0.2 0.3 0.4 0.2 0.1 0.3 0.3 0.2 0.2 0.4 0.3c1.5 1.4 2.8 2 4.1 1.8h0.3q0-0.1 0-0.2-0.1-0.1-0.1-0.2-0.1-0.1-0.2-0.2 0-0.1-0.1-0.2c-1.4-1.6-4.5-2.5-5.2-2.4z"/>
		<path id="Layer" fill-rule="evenodd" class="s3" d="m184.9 180.7l-15.6 2.8 4.3 23.5-30 5.5-4.3-23.5-62.9 11.4-5.3-28.7 49-87 30.1-5.5 14.2 77.3 15.5-2.9zm-50.5-18.7l-7.3-39.5-26 45.5z"/>
		<path id="Layer" class="s3" d="m305.4 74q-0.1-1.8-0.4-3.6-0.3-1.8-0.7-3.6-0.4-1.8-0.9-3.5-0.6-1.8-1.2-3.5-0.6-1.7-1.4-3.3-0.7-1.6-1.6-3.1-0.9-1.5-1.9-3-1-1.4-2.1-2.8-1.3-1.6-2.7-3.1-1.5-1.4-3.1-2.7-1.6-1.3-3.3-2.5-1.7-1.1-3.6-2.1-8-4.4-21.2-6.1-27.4-3.6-42.8 9.8-15.3 13.3-20.2 51-0.5 3.5-0.8 7-0.3 3.6-0.4 7.1-0.1 3.6-0.1 7.1 0.1 3.6 0.3 7.1 1 13 4.8 20.9 1.2 2.7 2.7 5.2 1.6 2.4 3.4 4.7 1.9 2.3 4 4.2 2.2 2 4.6 3.7 9.4 6.7 26 8.8 29.3 3.8 43.5-11.3 14.2-15.1 18.8-51.1 0.5-3.9 0.8-7.8 0.3-3.9 0.3-7.8 0.1-4-0.1-7.9-0.2-3.9-0.7-7.8z"/>
		<path id="Layer" class="s2" d="m251.8 157.4c-2.4-0.1-5-0.3-7.6-0.6-9.2-1.2-16.3-3.5-21.1-6.9q-1.8-1.3-3.4-2.8-1.6-1.5-3-3.2-1.4-1.7-2.6-3.5-1.1-1.9-2-3.9l-0.1-0.1c-1.9-4-3.1-9.8-3.7-17q-0.2-3.3-0.2-6.5-0.1-3.3 0-6.6 0.1-3.3 0.4-6.5 0.3-3.3 0.7-6.5c3.6-27.7 11-39.3 16.5-44.1 6.5-5.6 15.3-8.2 26.8-7.8 2.3 0.1 4.8 0.3 7.4 0.6 7.4 1 13.2 2.6 17.4 4.9q1.3 0.7 2.6 1.5 1.2 0.8 2.4 1.8 1.2 0.9 2.2 2 1.1 1 2.1 2.2 0.8 1 1.6 2.1 0.7 1.2 1.4 2.3 0.7 1.2 1.3 2.4 0.5 1.2 1 2.5 0.5 1.4 0.9 2.8 0.4 1.4 0.8 2.9 0.3 1.4 0.5 2.9 0.2 1.4 0.4 2.9 0.4 3.6 0.6 7.2 0.1 3.6 0.1 7.2 0 3.6-0.3 7.2-0.2 3.6-0.7 7.1c-2.8 21.6-8.1 36.7-15.9 45-5.8 6.2-14.5 9-26.5 8.6z"/>
		<path id="Layer" fill-rule="evenodd" class="s3" d="m268.9 74.9q0 0.5-0.1 0.9-0.1 0.5-0.2 1-0.1 0.5-0.2 0.9-0.2 0.5-0.3 0.9l1.8 1.6-1.5 3.5-2.5-0.4q-0.2 0.4-0.5 0.8-0.2 0.4-0.5 0.8-0.3 0.4-0.6 0.8-0.3 0.4-0.6 0.7l1.1 2.2-2.8 2.6-2.1-1.2q-0.4 0.2-0.8 0.5-0.4 0.3-0.8 0.5-0.4 0.3-0.8 0.5-0.4 0.2-0.8 0.5l0.1 2.4-3.5 1.3-1.5-2q-0.4 0.1-0.9 0.2-0.5 0.1-1 0.2-0.4 0.1-0.9 0.1-0.5 0.1-1 0.1l-0.7 2.4-3.8-0.2-0.6-2.3q-0.5-0.1-1-0.2-0.4-0.1-0.9-0.2-0.5-0.1-0.9-0.2-0.5-0.2-1-0.3l-1.6 1.8-3.4-1.5 0.4-2.5q-0.5-0.2-0.9-0.5-0.4-0.2-0.8-0.5-0.3-0.3-0.7-0.6-0.4-0.3-0.8-0.6l-2.2 1.1-2.6-2.8 1.3-2.1q-0.3-0.4-0.5-0.8-0.3-0.4-0.6-0.8-0.2-0.4-0.4-0.8-0.3-0.4-0.5-0.8l-2.4 0.2-1.4-3.6 2-1.4q-0.1-0.5-0.2-1-0.1-0.5-0.2-0.9 0-0.5-0.1-1 0-0.5-0.1-1l-2.3-0.7 0.1-3.8 2.4-0.6q0.1-0.5 0.2-1 0-0.4 0.2-0.9 0.1-0.5 0.2-0.9 0.1-0.5 0.3-1l-1.9-1.5 1.6-3.5 2.4 0.4q0.3-0.4 0.5-0.8 0.3-0.5 0.6-0.8 0.2-0.4 0.5-0.8 0.3-0.4 0.7-0.8l-1.2-2.2 2.8-2.5 2.1 1.2q0.4-0.3 0.8-0.5 0.4-0.3 0.8-0.5 0.4-0.3 0.8-0.5 0.5-0.3 0.9-0.5l-0.2-2.4 3.5-1.3 1.5 2q0.5-0.2 1-0.3 0.4-0.1 0.9-0.1 0.5-0.1 1-0.2 0.4 0 0.9-0.1l0.8-2.3 3.8 0.1 0.6 2.4q0.4 0.1 0.9 0.2 0.5 0.1 1 0.2 0.4 0.1 0.9 0.2 0.5 0.2 0.9 0.3l1.6-1.9 3.5 1.6-0.4 2.4q0.4 0.3 0.8 0.5 0.4 0.3 0.8 0.6 0.4 0.3 0.8 0.6 0.4 0.3 0.7 0.6l2.2-1.1 2.6 2.7-1.3 2.1q0.3 0.4 0.6 0.8 0.3 0.4 0.5 0.8 0.3 0.5 0.5 0.9 0.2 0.4 0.4 0.8l2.5-0.2 1.3 3.6-2 1.4q0.1 0.5 0.2 1 0.1 0.5 0.2 0.9 0.1 0.5 0.1 1 0.1 0.5 0.1 0.9l2.4 0.8-0.2 3.8zm-17.4 10.7c1.9-0.7 3.6-1.7 5-3.1 1.5-1.3 2.6-2.9 3.4-4.7 0.9-1.8 1.3-3.8 1.4-5.7 0.2-6.1-3.3-11.7-8.8-14.2-5.5-2.5-12-1.4-16.5 2.7-4.4 4.1-5.9 10.5-3.8 16.2 2.1 5.7 7.5 9.5 13.5 9.8 2 0 4-0.3 5.8-1z"/>
		<path id="Layer" fill-rule="evenodd" class="s4" d="m285.5 144.2q-0.1 0.3-0.2 0.6 0 0.3-0.1 0.6-0.1 0.3-0.3 0.6-0.1 0.3-0.2 0.6l1.2 1.2-1.2 2.3-1.7-0.4q-0.1 0.3-0.3 0.5-0.2 0.3-0.5 0.5-0.2 0.3-0.4 0.5-0.2 0.3-0.4 0.5l0.6 1.5-2 1.6-1.3-1q-0.3 0.2-0.6 0.4-0.3 0.1-0.6 0.3-0.3 0.1-0.6 0.3-0.2 0.1-0.6 0.2v1.7l-2.4 0.7-0.9-1.4q-0.3 0.1-0.7 0.1-0.3 0-0.6 0.1-0.3 0-0.7 0-0.3 0-0.6 0l-0.7 1.6-2.5-0.3-0.3-1.7q-0.3 0-0.6-0.1-0.3-0.1-0.7-0.2-0.3-0.1-0.6-0.2-0.3-0.1-0.6-0.2l-1.2 1.1-2.2-1.2 0.4-1.7q-0.3-0.1-0.6-0.3-0.2-0.2-0.5-0.4-0.2-0.2-0.5-0.5-0.2-0.2-0.4-0.4l-1.6 0.6-1.6-2 1-1.3q-0.2-0.3-0.3-0.6-0.2-0.3-0.3-0.6-0.2-0.2-0.3-0.5-0.2-0.3-0.3-0.6h-1.7l-0.7-2.5 1.4-0.9q0-0.3-0.1-0.6 0-0.4-0.1-0.7 0-0.3 0-0.6 0-0.3 0-0.7l-1.5-0.6 0.2-2.6 1.7-0.2q0-0.3 0.1-0.7 0.1-0.3 0.2-0.6 0.1-0.3 0.2-0.6 0.1-0.3 0.3-0.6l-1.2-1.2 1.2-2.2 1.6 0.3q0.2-0.2 0.4-0.5 0.2-0.3 0.4-0.5 0.2-0.3 0.5-0.5 0.2-0.2 0.4-0.5l-0.6-1.5 2-1.6 1.3 1q0.3-0.2 0.6-0.3 0.3-0.2 0.5-0.4 0.3-0.1 0.6-0.2 0.3-0.2 0.6-0.3v-1.7l2.5-0.7 0.9 1.4q0.3 0 0.6-0.1 0.4 0 0.7-0.1 0.3 0 0.6 0 0.4 0 0.7 0l0.6-1.6 2.6 0.3 0.2 1.7q0.4 0 0.7 0.1 0.3 0.1 0.6 0.2 0.3 0.1 0.6 0.2 0.3 0.1 0.6 0.2l1.2-1.1 2.2 1.2-0.3 1.6q0.2 0.2 0.5 0.4 0.3 0.2 0.5 0.4 0.3 0.2 0.5 0.4 0.2 0.3 0.5 0.5l1.5-0.6 1.6 2-0.9 1.3q0.1 0.3 0.3 0.6 0.2 0.3 0.3 0.5 0.2 0.3 0.3 0.6 0.1 0.3 0.3 0.6h1.6l0.7 2.5-1.4 0.9q0.1 0.3 0.1 0.6 0.1 0.4 0.1 0.7 0 0.3 0 0.6 0.1 0.4 0.1 0.7l1.5 0.6-0.3 2.6zm-10.7-3q0.1-0.9-0.2-1.7-0.2-0.9-0.8-1.6-0.5-0.6-1.3-1.1c-1.6-0.8-3.5-0.7-4.9 0.5-1.4 1.1-2 3-1.5 4.7 0.5 1.7 2 3 3.8 3.2 1.8 0.2 3.5-0.7 4.4-2.3q0.4-0.8 0.5-1.7z"/>
		<path id="Layer" fill-rule="evenodd" class="s5" d="m301.1 107l-3.1 1.9q-0.1 0.4-0.3 0.7-0.2 0.4-0.3 0.8-0.2 0.4-0.4 0.7-0.2 0.4-0.4 0.8l0.5 3-4.6 4.3-3-0.8q-0.4 0.2-0.8 0.4-0.3 0.1-0.7 0.3-0.4 0.1-0.8 0.3-0.4 0.1-0.8 0.2l-2.1 3-6.3-0.2-1.9-3.1q-0.4-0.1-0.7-0.3-0.4-0.2-0.8-0.3-0.4-0.2-0.7-0.4-0.4-0.2-0.8-0.4l-3 0.5-4.3-4.6 0.8-3q-0.2-0.4-0.4-0.8-0.2-0.3-0.3-0.7-0.2-0.4-0.3-0.8-0.1-0.4-0.2-0.8l-3-2.1 0.2-6.3 3.1-1.9q0.1-0.4 0.3-0.7 0.2-0.4 0.3-0.8 0.2-0.4 0.4-0.7 0.2-0.4 0.4-0.8l-0.5-3 4.6-4.3 3 0.8q0.4-0.2 0.7-0.4 0.4-0.2 0.8-0.3 0.4-0.2 0.8-0.3 0.4-0.1 0.8-0.2l2-3 6.4 0.2 1.8 3.1q0.4 0.1 0.8 0.3 0.4 0.2 0.8 0.3 0.3 0.2 0.7 0.4 0.4 0.2 0.7 0.4l3-0.5 4.3 4.6-0.7 3q0.2 0.4 0.3 0.7 0.2 0.4 0.4 0.8 0.1 0.4 0.2 0.8 0.2 0.4 0.3 0.8l3 2.1zm-16.8 2.8q1.3-0.5 2.3-1.5 1.1-1 1.7-2.3 0.6-1.2 0.6-2.7c0.1-2.8-1.5-5.5-4.2-6.7-2.6-1.2-5.7-0.7-7.8 1.3-2.1 2-2.8 5-1.8 7.7 1 2.7 3.6 4.5 6.5 4.6q1.4 0.1 2.7-0.4z"/>
		<path id="Layer" fill-rule="evenodd" class="s3" d="m320.8 50.6l-0.9-1q-0.2 0-0.4 0-0.1 0-0.3-0.1-0.1 0-0.3 0-0.1-0.1-0.3-0.1l-1 0.4-2-1.3v-1.2q-0.1-0.1-0.2-0.2-0.1-0.2-0.2-0.3-0.1-0.1-0.2-0.2-0.1-0.2-0.1-0.3l-1.3-0.5-0.4-2.4 1-0.9q0-0.1 0-0.3 0.1-0.2 0.1-0.3 0-0.2 0.1-0.3 0-0.2 0.1-0.3l-0.5-1.1 1.4-2h1.1q0.2-0.1 0.3-0.2 0.1-0.1 0.2-0.1 0.2-0.1 0.3-0.2 0.2-0.1 0.3-0.2l0.5-1.2 2.4-0.4 0.9 1q0.1 0 0.3 0 0.1 0 0.3 0.1 0.2 0 0.3 0 0.2 0.1 0.3 0.1l1.1-0.4 1.9 1.4v1.1q0.1 0.1 0.2 0.2 0.1 0.2 0.2 0.3 0.1 0.1 0.2 0.2 0 0.2 0.1 0.3l1.3 0.5 0.4 2.4-1 0.9q0 0.1-0.1 0.3 0 0.1-0.1 0.3 0 0.1-0.1 0.2 0 0.2-0.1 0.3l0.4 1.1-1.3 2h-1.2q-0.1 0.1-0.2 0.2-0.1 0.1-0.3 0.1-0.1 0.1-0.2 0.2-0.1 0.1-0.3 0.2l-0.5 1.2zm-2.4-6q0.3 0.4 0.7 0.7 0.5 0.3 1 0.5 0.5 0.1 1 0c1.1-0.2 2-1 2.2-2.1 0.2-1-0.2-2.1-1.1-2.8-0.9-0.6-2.1-0.6-3 0-0.9 0.6-1.4 1.7-1.2 2.7q0.1 0.5 0.4 1z"/>
		<path id="Layer" class="s3" d="m295.6 43.5l-0.8-0.7q0.7-0.7 1.3-1.4 0.7-0.7 1.5-1.4 0.7-0.6 1.6-1.1 0.8-0.6 1.6-1.1l0.5 0.9q-0.8 0.5-1.6 1-0.8 0.5-1.5 1.1-0.7 0.6-1.3 1.3-0.7 0.7-1.3 1.4z"/>
		<path id="Layer" class="s3" d="m303.6 37.8l-0.4-0.9q1.4-0.6 2.8-1 1.5-0.5 3-0.7 1.4-0.2 2.9-0.3 1.5 0 3 0.1l-0.1 1q-1.4-0.1-2.8-0.1-1.5 0.1-2.9 0.3-1.4 0.2-2.8 0.6-1.4 0.4-2.7 1z"/>
		<path id="Layer" class="s3" d="m301.7 44.7l-0.8-0.5q0.9-1.2 2-2.3 1.1-1 2.3-1.8 1.3-0.8 2.7-1.4 1.4-0.6 2.9-0.9l0.1 1q-1.3 0.3-2.6 0.8-1.3 0.5-2.5 1.3-1.2 0.8-2.2 1.7-1.1 1-1.9 2.1z"/>
		<path id="Layer" fill-rule="evenodd" class="s5" d="m235.3 141q0 0-0.1 0 0 0-0.1 0 0-0.1 0-0.1-0.1 0-0.1-0.1l-2.1-2.1q-0.4-0.1-0.8-0.1-0.4-0.1-0.8-0.1-0.4-0.1-0.8-0.2-0.4-0.1-0.8-0.2l-3.2 1.4q-0.1 0.1-0.1 0.1-0.1 0-0.2 0 0 0-0.1 0 0 0-0.1-0.1l-5.5-3.6q0 0-0.1-0.1 0 0 0-0.1-0.1 0-0.1-0.1 0-0.1 0-0.1v-3.6q-0.3-0.3-0.5-0.6-0.2-0.3-0.4-0.7-0.3-0.3-0.5-0.7-0.2-0.3-0.4-0.7l-2.8-1q0-0.1-0.1-0.1 0 0-0.1-0.1 0 0 0-0.1-0.1 0-0.1-0.1l-1.3-6.5q0 0 0-0.1 0 0 0-0.1 0-0.1 0.1-0.1 0-0.1 0.1-0.1l2.1-2.1q0.1-0.4 0.1-0.8 0.1-0.4 0.1-0.8 0.1-0.4 0.2-0.8 0.1-0.4 0.2-0.8l-1.4-3.2q-0.1-0.1-0.1-0.1 0-0.1 0-0.2 0 0 0-0.1 0 0 0.1-0.1l3.6-5.5q0 0 0.1-0.1 0 0 0.1 0 0-0.1 0.1-0.1 0.1 0 0.1 0l3.6 0.1q0.3-0.3 0.6-0.5 0.3-0.3 0.7-0.5 0.3-0.2 0.7-0.4 0.3-0.2 0.7-0.4l1-2.8q0.1-0.1 0.1-0.1 0-0.1 0.1-0.1 0-0.1 0.1-0.1 0 0 0.1 0l6.4-1.3q0.1 0 0.2 0 0 0 0.1 0 0.1 0 0.1 0 0.1 0.1 0.1 0.1l2.1 2.2q0.4 0 0.8 0.1 0.4 0 0.8 0.1 0.4 0.1 0.8 0.2 0.4 0.1 0.8 0.2l3.2-1.5q0.1 0 0.1 0 0.1 0 0.2 0 0 0 0.1 0 0 0 0.1 0l5.5 3.6q0 0.1 0.1 0.1 0 0.1 0 0.1 0.1 0.1 0.1 0.2 0 0 0 0.1l-0.1 3.5q0.3 0.4 0.5 0.7 0.3 0.3 0.5 0.6 0.2 0.4 0.4 0.7 0.2 0.4 0.4 0.7l2.8 1.1q0.1 0 0.1 0.1 0.1 0 0.1 0 0.1 0.1 0.1 0.2 0 0 0 0.1l1.3 6.4q0 0.1 0 0.1 0 0.1 0 0.2 0 0 0 0.1-0.1 0-0.1 0.1l-2.2 2.1q0 0.4-0.1 0.8 0 0.4-0.1 0.8-0.1 0.3-0.2 0.7-0.1 0.4-0.2 0.8l1.5 3.3q0 0 0 0.1 0 0.1 0 0.1 0 0.1 0 0.1 0 0.1 0 0.2l-3.6 5.4q0 0-0.1 0.1 0 0-0.1 0.1 0 0-0.1 0-0.1 0-0.1 0h-3.6q-0.3 0.2-0.6 0.4-0.4 0.3-0.7 0.5-0.3 0.2-0.7 0.4-0.3 0.2-0.7 0.4l-1 2.8q-0.1 0.1-0.1 0.1 0 0.1-0.1 0.1 0 0.1-0.1 0.1-0.1 0-0.1 0l-6.5 1.4zm-5.6-4q0 0 0 0 0.1 0 0.1 0 0 0 0 0 0 0 0 0 0.5 0.1 0.9 0.2 0.4 0.1 0.8 0.2 0.4 0.1 0.8 0.1 0.4 0.1 0.9 0.1 0 0 0 0 0.1 0 0.1 0.1 0.1 0 0.1 0 0 0 0.1 0.1l2 2.1 5.9-1.2 1-2.8q0.1 0 0.1 0 0-0.1 0-0.1 0.1-0.1 0.1-0.1 0 0 0.1 0 0.4-0.2 0.7-0.4 0.4-0.2 0.7-0.5 0.4-0.2 0.7-0.5 0.4-0.2 0.7-0.5 0 0 0.1 0 0-0.1 0-0.1 0.1 0 0.1 0 0.1 0 0.1 0l3.5 0.1 3.3-5-1.4-3.2q0-0.1 0-0.1 0 0 0-0.1 0 0 0-0.1 0 0 0-0.1 0.1-0.4 0.2-0.8 0.1-0.4 0.2-0.8 0.1-0.4 0.1-0.8 0.1-0.5 0.1-0.9 0 0 0-0.1 0 0 0.1 0 0-0.1 0-0.1 0-0.1 0.1-0.1l2.1-2-1.2-5.9-2.7-1q-0.1-0.1-0.1-0.1-0.1 0-0.1 0 0-0.1-0.1-0.1 0 0 0-0.1-0.2-0.4-0.4-0.7-0.2-0.4-0.5-0.7-0.2-0.4-0.5-0.7-0.2-0.4-0.5-0.7 0 0 0-0.1 0 0-0.1-0.1 0 0 0 0 0-0.1 0-0.1v-3.5l-5-3.3-3.1 1.4q-0.1 0-0.1 0-0.1 0-0.1 0-0.1 0-0.1 0-0.1 0-0.1 0-0.4-0.1-0.8-0.2-0.4-0.1-0.8-0.2-0.5-0.1-0.9-0.1-0.4-0.1-0.8-0.1-0.1 0-0.1 0-0.1-0.1-0.1-0.1 0 0-0.1 0 0 0 0-0.1l-2-2.1-5.9 1.2-1.1 2.8q0 0 0 0.1-0.1 0-0.1 0.1 0 0 0 0-0.1 0-0.1 0.1-0.4 0.2-0.8 0.4-0.3 0.2-0.7 0.4-0.3 0.3-0.7 0.5-0.3 0.3-0.6 0.5-0.1 0-0.1 0.1 0 0-0.1 0 0 0-0.1 0 0 0-0.1 0h-3.4l-3.4 5 1.4 3.2q0.1 0 0.1 0.1 0 0 0 0.1 0 0 0 0.1 0 0-0.1 0.1-0.1 0.4-0.2 0.8-0.1 0.4-0.1 0.8-0.1 0.4-0.2 0.8 0 0.4 0 0.8 0 0.1-0.1 0.1 0 0.1 0 0.1 0 0 0 0.1-0.1 0-0.1 0l-2.1 2 1.2 5.9 2.7 1.1q0.1 0 0.1 0 0.1 0.1 0.1 0.1 0 0 0.1 0.1 0 0 0 0.1 0.2 0.3 0.4 0.7 0.2 0.4 0.5 0.7 0.2 0.4 0.4 0.7 0.3 0.3 0.5 0.6 0.1 0.1 0.1 0.1 0 0.1 0 0.1 0 0 0.1 0.1 0 0 0 0.1v3.4l5 3.4 3.1-1.4q0.1 0 0.1-0.1 0 0 0 0 0 0 0.1 0 0 0 0 0zm4.9-3.2c-2.4 0-4.7-0.7-6.8-1.9-2.1-1.3-3.8-3-4.9-5.2-1.1-2.1-1.7-4.5-1.6-6.9 0.1-2.4 0.9-4.7 2.2-6.7 2.6-3.9 7.1-6.2 11.8-6 4.7 0.2 8.9 2.9 11.1 7 2.2 4.2 2.1 9.2-0.3 13.2-2.4 4-6.8 6.5-11.5 6.5zm-10.2-20.2c-2.8 4.2-2.8 9.6 0 13.7 2.8 4.2 7.8 6.2 12.7 5.2 4.9-1 8.7-4.8 9.6-9.7 1-4.9-1.1-9.9-5.3-12.6-1.3-0.9-2.8-1.6-4.4-1.9-1.6-0.3-3.2-0.3-4.8 0-1.6 0.4-3.1 1-4.4 1.9-1.4 0.9-2.5 2.1-3.4 3.4z"/>
		<path id="Layer" fill-rule="evenodd" class="s3" d="m422.2 189.9l-15.7-2.1-3.2 23.7-30.2-4.1 3.1-23.7-63.3-8.5 3.9-28.9 73.4-67.7 30.3 4.1-10.4 77.8 15.7 2.2zm-42.3-33.5l5.3-39.9-38.8 35.3z"/>
		<path id="Layer" class="s2" d="m394.1 210.7h-0.1q-0.1 0-0.2 0-0.1-0.1-0.1-0.2-0.1 0-0.1-0.1 0-0.1 0-0.2l23.4-128q0-0.1 0.1-0.2 0 0 0.1-0.1 0.1-0.1 0.2-0.1 0.1 0 0.2 0 0.1 0 0.2 0.1 0 0 0.1 0.1 0.1 0.1 0.1 0.2 0 0.1 0 0.2l-23.4 127.9q0 0.1 0 0.2-0.1 0.1-0.1 0.1-0.1 0.1-0.2 0.1-0.1 0-0.2 0z"/>
		<path id="Layer" class="s2" d="m414.8 84.4q0 0.3-0.2 0.5-0.3 0.3-0.6 0.3-0.4-0.1-0.6-0.3-0.2-0.3-0.2-0.6 0-0.3 0.3-0.6 0.2-0.2 0.5-0.2 0.4 0 0.6 0.3 0.2 0.2 0.2 0.6z"/>
		<path id="Layer" class="s2" d="m411.5 101.7c0 0.3-0.2 0.6-0.5 0.7-0.3 0.1-0.7 0-0.9-0.2-0.2-0.2-0.3-0.6-0.2-0.9 0.2-0.3 0.5-0.5 0.8-0.5q0.2 0 0.3 0.1 0.2 0.1 0.3 0.2 0.1 0.1 0.1 0.3 0.1 0.1 0.1 0.3z"/>
		<path id="Layer" class="s2" d="m408.2 119q0 0.2-0.1 0.3-0.1 0.2-0.2 0.3-0.1 0.1-0.3 0.1-0.1 0.1-0.3 0.1-0.1 0-0.3-0.1-0.1 0-0.3-0.2-0.1-0.1-0.1-0.2-0.1-0.2-0.1-0.3 0-0.2 0.1-0.4 0.1-0.1 0.2-0.2 0.1-0.1 0.3-0.2 0.1-0.1 0.3-0.1 0.1 0.1 0.3 0.1 0.1 0.1 0.2 0.2 0.2 0.1 0.2 0.3 0.1 0.1 0.1 0.3z"/>
		<path id="Layer" class="s2" d="m401.6 137q0 0.3-0.3 0.5-0.2 0.2-0.5 0.2-0.3 0-0.6-0.2-0.2-0.2-0.2-0.5-0.1-0.4 0.2-0.6 0.2-0.3 0.6-0.3 0.4 0 0.6 0.3 0.2 0.2 0.2 0.6z"/>
		<path id="Layer" class="s2" d="m401.5 153.6q0 0.1-0.1 0.3 0 0.1-0.2 0.2-0.1 0.2-0.2 0.2-0.2 0.1-0.4 0.1c-0.3-0.1-0.6-0.3-0.7-0.6-0.1-0.3 0-0.6 0.2-0.9 0.3-0.2 0.6-0.2 0.9-0.1 0.3 0.1 0.5 0.4 0.5 0.8z"/>
		<path id="Layer" class="s2" d="m398.2 170.9c0 0.3-0.2 0.6-0.6 0.7-0.3 0.1-0.6 0.1-0.8-0.2-0.3-0.2-0.3-0.6-0.2-0.9 0.1-0.3 0.4-0.5 0.8-0.5q0.1 0 0.3 0.1 0.1 0.1 0.2 0.2 0.2 0.1 0.2 0.3 0.1 0.1 0.1 0.3z"/>
		<path id="Layer" class="s2" d="m394.8 188.2q0 0.1 0 0.3-0.1 0.1-0.2 0.2-0.1 0.2-0.3 0.2-0.1 0.1-0.3 0.1-0.2 0-0.3-0.1-0.2-0.1-0.3-0.2-0.1-0.1-0.1-0.3-0.1-0.1-0.1-0.3 0-0.3 0.3-0.6 0.2-0.2 0.5-0.2 0.4 0 0.6 0.3 0.2 0.2 0.2 0.6z"/>
		<path id="Layer" class="s2" d="m391.5 205.5c0 0.3-0.2 0.6-0.5 0.7-0.3 0.1-0.7 0.1-0.9-0.2-0.2-0.2-0.3-0.6-0.2-0.9 0.2-0.3 0.5-0.5 0.8-0.5q0.2 0 0.3 0.1 0.2 0.1 0.3 0.2 0.1 0.1 0.2 0.3 0 0.1 0 0.3z"/>
		<path id="Layer" class="s2" d="m400.8 137.4q-0.1 0-0.2 0-0.1 0-0.1-0.1-0.1 0-0.1-0.1-0.1-0.1-0.1-0.1 0-0.1 0-0.2 0-0.1 0.1-0.2 0-0.1 0.1-0.2 0.1 0 0.2 0l2.5-0.6q0.1 0 0.2 0 0.1 0 0.2 0.1 0 0.1 0.1 0.1 0.1 0.1 0.1 0.2 0 0.1 0 0.2 0 0.1-0.1 0.2-0.1 0.1-0.1 0.1-0.1 0.1-0.2 0.1l-2.5 0.5z"/>
		<path id="Layer" class="s2" d="m409.1 128.2q-0.5 1.2-0.9 2.3-0.4 1.2-0.8 2.4-0.3 1.1-0.7 2.3-0.3 1.2-0.6 2.4c-0.8 3.5-0.8 11.4-0.8 11.4"/>
		<path id="Layer" class="s2" d="m405.3 149.5q-0.1 0-0.2 0-0.1-0.1-0.2-0.1 0-0.1-0.1-0.2 0-0.1 0-0.2c0-0.3 0.1-8 0.8-11.5q0.3-1.2 0.6-2.4 0.4-1.2 0.8-2.4 0.3-1.1 0.7-2.3 0.5-1.2 0.9-2.3 0.1-0.2 0.3-0.3 0.2-0.1 0.4-0.1 0.2 0.1 0.2 0.3 0.1 0.2 0 0.4-0.4 1.2-0.8 2.3-0.4 1.2-0.8 2.3-0.4 1.2-0.7 2.4-0.4 1.1-0.7 2.3c-0.7 3.5-0.7 11.3-0.8 11.3q0 0.1 0 0.2 0 0.1-0.1 0.2-0.1 0-0.1 0.1-0.1 0-0.2 0z"/>
	</g>
	<g id="freepik--Character--inject-2">
		<path id="Layer" class="s2" d="m222.4 235.8c1.4-22.4-1.1-63.1 41-57.7 45.1 5.8 32.2 58.6 32.2 58.6z"/>
		<path id="Layer" class="s5" d="m251.5 222.4c-10.2 0-18.4-8.2-18.4-18.4 0-10.2 8.2-18.4 18.4-18.4 10.2 0 18.4 8.2 18.4 18.4 0 10.2-8.2 18.4-18.4 18.4z"/>
		<path id="Layer" class="s2" d="m253.9 185.7c-8.7-1.5-18 4.9-18.9 11.4l34.5 3.2c-1.2-7.5-8.7-13.5-15.6-14.6z"/>
		<path id="Layer" class="s2" d="m265.6 203.5c-0.3 4.9-2.9 8.6-5.9 8.5-3-0.2-5.2-4.2-5-9 0.2-4.9 2.9-8.6 5.9-8.5 3 0.2 5.2 4.2 5 9z"/>
		<path id="Layer" fill-rule="evenodd" class="s3" d="m251.5 223.4c-7.8 0-14.9-4.7-17.9-12-3-7.2-1.3-15.6 4.2-21.1 5.5-5.5 13.9-7.2 21.1-4.2 7.3 3 12 10.1 12 17.9 0 2.5-0.5 5.1-1.5 7.4-1 2.4-2.4 4.5-4.2 6.3-1.8 1.8-3.9 3.2-6.3 4.2-2.3 1-4.8 1.5-7.4 1.5zm0-36.8c-7 0-13.4 4.3-16 10.8-2.7 6.5-1.2 13.9 3.7 18.9 5 5 12.5 6.5 19 3.8 6.5-2.7 10.7-9.1 10.7-16.1 0-2.3-0.5-4.5-1.3-6.6-0.9-2.2-2.2-4.1-3.8-5.7-1.6-1.6-3.5-2.9-5.6-3.7-2.2-0.9-4.4-1.4-6.7-1.4z"/>
		<path id="Layer" class="s6" d="m290.5 235.3h-0.1q-0.1 0-0.2-0.1-0.1-0.1-0.1-0.1-0.1-0.1-0.1-0.2 0-0.1 0-0.2c0-0.2 3.2-13.7-0.1-27.4q0-0.2 0.1-0.4 0.1-0.2 0.3-0.2 0.2-0.1 0.4 0 0.1 0.1 0.2 0.3c3.4 14 0.1 27.8 0.1 27.9q0 0.1-0.1 0.2 0 0-0.1 0.1-0.1 0-0.1 0.1-0.1 0-0.2 0z"/>
		<path id="Layer" class="s6" d="m287.7 199.8q-0.1 0-0.1-0.1-0.1 0-0.2 0 0-0.1-0.1-0.1 0-0.1-0.1-0.1-0.4-1.1-1-2.1-0.5-1-1.1-1.9-0.6-1-1.2-1.9-0.7-0.9-1.4-1.8-0.1-0.1-0.1-0.2 0-0.1 0-0.2 0-0.1 0-0.1 0.1-0.1 0.2-0.2 0-0.1 0.1-0.1 0.1 0 0.2 0 0.1 0 0.2 0.1 0.1 0 0.2 0.1 0.7 0.9 1.4 1.8 0.7 1 1.3 2 0.6 0.9 1.1 2 0.6 1 1 2 0.1 0.1 0.1 0.2 0 0.1 0 0.2-0.1 0.1-0.1 0.2-0.1 0.1-0.2 0.1 0 0 0 0-0.1 0-0.1 0 0 0.1 0 0.1-0.1 0-0.1 0z"/>
		<path id="Layer" class="s2" d="m128.7 340.9h-0.3c-1.4 0-2.6-0.6-3.5-1.5-0.9-1-1.4-2.3-1.4-3.6 0-1.3 0.6-2.6 1.6-3.5 0.9-0.9 2.2-1.4 3.5-1.4h0.1c2.9 0 9.9-3.5 24.4-26.4q0.6-0.9 1.5-1.5 0.9-0.6 2-0.8 1.1-0.1 2.1 0.2 1.1 0.3 1.9 1 4.3 3.7 8.8 7.1 4.4 3.5 9.1 6.7 4.6 3.1 9.5 6.1 4.8 2.9 9.8 5.6c1.2 0.5 2.2 1.6 2.6 2.9 0.5 1.3 0.4 2.7-0.3 3.9-0.6 1.2-1.7 2.1-3 2.5-1.3 0.4-2.7 0.3-3.9-0.4q-4.6-2.5-9.1-5.1-4.5-2.7-8.8-5.6-4.4-2.9-8.6-6-4.2-3.1-8.3-6.4c-12.1 18.3-21.2 26.2-29.7 26.2z"/>
		<path id="Layer" class="s2" d="m159.7 302.5h-0.5q-0.5-0.1-1.1-0.4-0.5-0.3-0.8-0.8-0.4-0.4-0.5-1-0.2-0.6-0.1-1.2c0.7-5-0.2-23.6-6.5-38.1q-0.2-0.5-0.2-1-0.1-0.5 0.1-1.1 0.1-0.5 0.4-0.9 0.3-0.4 0.8-0.7c13.7-9.3 42.9-10.4 44.1-10.5 0.8 0 1.6 0.3 2.1 0.8 0.6 0.6 1 1.3 1 2.1 0 0.8-0.3 1.6-0.8 2.2-0.6 0.5-1.3 0.9-2.1 0.9-0.3 0-25.8 1-38.9 8.2 5.6 14.4 6.9 32.4 5.9 38.9q0 0.6-0.3 1.1-0.3 0.4-0.7 0.8-0.4 0.3-0.9 0.5-0.5 0.2-1 0.2z"/>
		<path id="Layer" class="s3" d="m164.7 298.6c-2-4.7-11-4.2-16.3-0.1-2.8 2.1-6.6 8.6-7 11q-0.1 0.8 0.1 1.7 0.2 0.8 0.8 1.5 0.6 0.6 1.5 0.9 0.8 0.2 1.6 0.1c3.5-0.3 8.2-5.3 8.2-5.3-3.1 3.1 0.9 5.3 7 0.8 3.3-2.5 6.3-5.3 4.1-10.6z"/>
		<path id="Layer" fill-rule="evenodd" class="s2" d="m336.7 237.2q0 0 0 0 0 0-0.1 0 0 0 0 0 0 0 0 0-0.1-0.1-0.2-0.1-0.1-0.1-0.1-0.2-0.1-0.1-0.1-0.2 0-0.1 0-0.2c1.4-4.6 2.8-7.4 4.7-9q-0.1-0.4-0.1-0.8-0.1-0.4-0.1-0.8 0.1-0.4 0.1-0.8 0.1-0.4 0.3-0.8 0.2-0.5 0.4-0.9 0.2-0.4 0.5-0.8 0.3-0.4 0.7-0.7 0.3-0.3 0.7-0.6-0.2-0.3-0.3-0.5-0.2-0.3-0.3-0.6 0-0.3 0-0.7 0-0.3 0.1-0.6 0.1-0.5 0.3-0.9 0.2-0.4 0.5-0.8 0.2-0.5 0.6-0.8 0.3-0.4 0.7-0.7-0.1-0.1-0.3-0.3-0.1-0.2-0.1-0.4-0.1-0.2-0.1-0.4-0.1-0.2-0.1-0.4c0-3 5.5-7.5 11.8-8.3q0.2-0.1 0.4 0.1 0.1 0.1 0.1 0.3 0.1 0.2-0.1 0.4-0.1 0.1-0.3 0.1c-5.9 0.9-10.9 5.2-10.9 7.4q0 0.2 0 0.3 0.1 0.1 0.1 0.2 0.1 0.1 0.1 0.2 0.1 0.1 0.2 0.2 1-0.6 2.1-1.1 1.1-0.5 2.3-0.7 1.2-0.3 2.4-0.3 1.3 0 2.5 0.3c3 0.6 4.3 1.2 4.1 2.1-0.2 1.8-6.8 2.2-11.1 1.6q-0.3 0-0.6 0-0.3-0.1-0.6-0.2-0.3-0.1-0.6-0.2-0.2-0.1-0.5-0.2-0.4 0.2-0.7 0.5-0.3 0.3-0.5 0.7-0.3 0.3-0.5 0.7-0.2 0.4-0.3 0.8-0.1 0.2-0.1 0.5 0 0.2 0.1 0.4 0.1 0.2 0.2 0.4 0.1 0.2 0.3 0.4c1.9-1 4.5-1.4 7.9-0.6 4.5 1 4.7 1.5 4.8 1.8q0 0.1 0 0.2 0.1 0.1 0 0.2 0 0.1 0 0.2-0.1 0-0.1 0.1c-1 1-7.9 0.5-11.4-0.3q-0.2-0.1-0.4-0.1-0.1 0-0.3-0.1-0.1-0.1-0.3-0.1-0.1-0.1-0.2-0.2-0.4 0.3-0.8 0.6-0.3 0.3-0.6 0.6-0.3 0.3-0.5 0.7-0.2 0.4-0.4 0.8-0.1 0.3-0.2 0.6-0.1 0.3-0.1 0.6 0 0.3 0 0.6 0 0.3 0.1 0.5 0 0 0.1 0 0.1-0.1 0.1-0.1 0.1 0 0.2-0.1 0 0 0.1 0c2.1-1 4.6-0.9 7.7 0.5 2 0.8 3 1.6 3.1 2.4q0 0.1-0.1 0.3 0 0.1-0.1 0.3-0.1 0.1-0.2 0.2-0.1 0.1-0.2 0.2c-1.5 1-6.9 0.9-9.6-0.6q-0.3-0.2-0.5-0.3-0.2-0.2-0.4-0.4-0.2-0.2-0.4-0.4-0.2-0.2-0.3-0.4c-1.6 1.5-2.9 4.2-4.1 8.3q-0.1 0.1-0.1 0.2-0.1 0-0.1 0.1-0.1 0-0.1 0-0.1 0.1-0.2 0.1zm5.4-9.4q0.1 0.2 0.3 0.4 0.1 0.2 0.3 0.3 0.1 0.2 0.3 0.3 0.2 0.1 0.4 0.3c2.2 1.2 6.7 1.4 8.3 0.8 0.4-0.2 0.4-0.3 0.4-0.3 0 0 0-0.6-2.5-1.6-2.8-1.2-5-1.4-6.8-0.5q-0.1 0-0.2 0.1-0.1 0-0.2 0 0 0.1-0.1 0.1-0.1 0.1-0.2 0.1zm3.4-6.5h0.2q1.2 0.3 2.5 0.5 1.2 0.2 2.5 0.3 1.2 0.1 2.5 0.1 1.2 0 2.5-0.1-0.5-0.2-0.9-0.3-0.5-0.2-0.9-0.3-0.5-0.1-1-0.2-0.4-0.1-0.9-0.2-0.8-0.2-1.6-0.3-0.8-0.1-1.7-0.1-0.8 0-1.6 0.2-0.8 0.1-1.6 0.4zm1.2-5.7q0.2 0.1 0.4 0.2 0.2 0 0.3 0 0.2 0.1 0.4 0.1 0.2 0 0.4 0.1c5 0.6 9.3-0.1 10-0.8-0.2-0.1-0.9-0.5-3.4-1q-1-0.2-2.1-0.2-1 0-2.1 0.1-1 0.2-2 0.6-1 0.4-1.9 0.9z"/>
		<path id="Layer" class="s2" d="m206.5 339.3c0.7-0.3 0.5-0.9-0.3-0.9h-13.5c-25.8-2.7-43.8 0.9-32.5 1.8 11.4 0.8-0.8 0.7-9 3.8-8.3 3.1 61.6 3.9 68 0 5.8-3.6-21.8-1.8-12.7-4.8z"/>
		<path id="Layer" class="s3" d="m303.5 343.2l-117.8-3.9-4.9-114.2 139.1 3.1-16.4 115z"/>
		<path id="Layer" class="s2" d="m222.4 341.1q0 0-0.1-0.1-0.1 0-0.2-0.1-0.1 0-0.1-0.1 0-0.1-0.1-0.2l-9.4-114.7q0-0.1 0-0.2 0.1-0.1 0.1-0.2 0.1-0.1 0.2-0.1 0.1-0.1 0.2-0.1 0.1 0 0.2 0.1 0.1 0 0.1 0.1 0.1 0 0.2 0.1 0 0.1 0 0.2l9.5 114.7q0 0.1 0 0.2-0.1 0.1-0.1 0.2-0.1 0.1-0.2 0.1-0.1 0-0.2 0z"/>
		<path id="Layer" class="s3" d="m303.5 343.2l31.6-4.8 10-106.2-25.2-4-16.4 115z"/>
		<path id="Layer" class="s7" d="m303.5 343.2l31.6-4.8 10-106.2-25.2-4-16.4 115z"/>
		<path id="Layer" class="s2" d="m195.7 317.3l-2.9-67.9c0-1.6 0.2-3.3 0.8-4.9 0.6-1.5 1.5-3 2.7-4.2 1.2-1.2 2.6-2.1 4.2-2.7 1.5-0.7 3.2-1 4.9-0.9l88 2c1.8 0 3.5 0.4 5 1.2 1.6 0.7 3 1.8 4.1 3.1 1.1 1.3 2 2.9 2.4 4.5 0.5 1.7 0.6 3.4 0.4 5.2l-9.8 68.3c-0.2 1.5-0.7 2.9-1.4 4.2-0.7 1.3-1.7 2.5-2.8 3.5-1.2 0.9-2.5 1.7-3.9 2.2-1.4 0.5-2.9 0.7-4.4 0.7l-75.4-2.5c-1.5-0.1-3-0.4-4.4-1-1.5-0.6-2.7-1.5-3.8-2.6-1.1-1.1-2-2.3-2.6-3.7-0.6-1.4-1-2.9-1.1-4.5z"/>
		<path id="Layer" class="s5" d="m205.3 257.5l13.6 0.4-0.1 3.5-8.6-0.2-0.1 2.6 8 0.2-0.2 3.4-7.9-0.3-0.1 3.3 8.8 0.3-0.1 3.7-13.9-0.5z"/>
		<path id="Layer" fill-rule="evenodd" class="s5" d="m221.4 274.5l0.5-16.5 8.5 0.3q0.5 0 0.9 0 0.5 0.1 0.9 0.1 0.5 0.1 0.9 0.2 0.5 0.1 0.9 0.2 0.3 0.1 0.6 0.3 0.3 0.1 0.5 0.3 0.3 0.2 0.5 0.5 0.2 0.2 0.4 0.5 0.5 0.8 0.7 1.7 0.1 1-0.1 1.9-0.2 1-0.8 1.7-0.6 0.8-1.4 1.3-0.3 0.1-0.5 0.2-0.2 0.1-0.4 0.1-0.3 0.1-0.5 0.2-0.2 0-0.5 0.1 0.2 0 0.4 0.1 0.2 0.1 0.3 0.1 0.2 0.1 0.3 0.2 0.2 0.1 0.4 0.2 0.1 0.1 0.2 0.2 0.1 0.1 0.2 0.2 0.1 0.1 0.2 0.3 0 0.1 0.1 0.2 0.1 0.1 0.2 0.2 0.1 0.2 0.2 0.3 0.1 0.1 0.2 0.2 0 0.2 0.1 0.3l2.3 4.8-5.7-0.1-2.6-5.2q-0.1-0.1-0.1-0.3-0.1-0.2-0.3-0.3-0.1-0.2-0.2-0.4-0.1-0.1-0.3-0.2-0.1-0.1-0.2-0.2-0.2-0.1-0.3-0.2-0.2 0-0.4 0-0.1-0.1-0.3-0.1h-0.4l-0.2 6.7zm5.4-9.6h2.1q0.2 0 0.4 0 0.1 0 0.3 0 0.2 0 0.3-0.1 0.2 0 0.4 0 0.1-0.1 0.2-0.1 0.1 0 0.2-0.1 0.1-0.1 0.2-0.1 0.1-0.1 0.2-0.2 0.1-0.1 0.2-0.2 0-0.2 0.1-0.3 0-0.1 0-0.2 0.1-0.1 0.1-0.3 0-0.1 0-0.3-0.1-0.2-0.1-0.3-0.1-0.2-0.2-0.3-0.1-0.2-0.2-0.3-0.2-0.1-0.4-0.2-0.3-0.1-0.5-0.2-0.3-0.1-0.5-0.1-0.2 0-0.5 0l-2.2-0.1z"/>
		<path id="Layer" fill-rule="evenodd" class="s5" d="m239.3 275l0.5-16.4 8.5 0.2q0.4 0 0.9 0 0.4 0.1 0.9 0.1 0.4 0.1 0.9 0.2 0.4 0.1 0.9 0.2 0.3 0.1 0.6 0.3 0.2 0.1 0.5 0.3 0.3 0.2 0.5 0.5 0.2 0.2 0.4 0.5 0.1 0.3 0.3 0.6 0.1 0.3 0.2 0.7 0.1 0.3 0.1 0.7 0.1 0.3 0 0.7 0 0.6-0.1 1.2-0.2 0.5-0.5 1.1-0.3 0.5-0.7 0.9-0.4 0.4-1 0.7-0.2 0.1-0.4 0.2-0.2 0.1-0.5 0.2-0.2 0-0.4 0.1-0.2 0.1-0.5 0.1 0.2 0 0.4 0.1 0.1 0.1 0.3 0.2 0.2 0 0.3 0.1 0.2 0.1 0.3 0.2 0.1 0.1 0.2 0.2 0.1 0.1 0.2 0.3 0.1 0.1 0.2 0.2 0.1 0.1 0.2 0.2 0.1 0.1 0.2 0.3 0.1 0.1 0.2 0.2 0.1 0.1 0.1 0.3 0.1 0.1 0.2 0.2l2.3 4.9-5.7-0.2-2.6-5.1q-0.1-0.2-0.2-0.4-0.1-0.2-0.2-0.3-0.1-0.2-0.2-0.3-0.1-0.2-0.3-0.3-0.1-0.1-0.3-0.2-0.1-0.1-0.3-0.1-0.1-0.1-0.3-0.1-0.2 0-0.3-0.1h-0.5l-0.2 6.7zm5.4-9.6l2.2 0.1q0.2 0 0.3-0.1 0.2 0 0.4 0 0.1 0 0.3 0 0.2-0.1 0.3-0.1 0.2 0 0.3-0.1 0.1 0 0.2-0.1 0.1 0 0.2-0.1 0.1-0.1 0.2-0.2 0.1-0.1 0.1-0.2 0.1-0.1 0.1-0.2 0.1-0.2 0.1-0.3 0-0.1 0-0.2 0-0.2 0-0.4 0-0.2-0.1-0.3 0-0.2-0.1-0.3-0.1-0.2-0.2-0.3-0.2-0.1-0.5-0.2-0.2-0.1-0.4-0.2-0.3 0-0.5-0.1-0.3 0-0.5 0h-2.3z"/>
		<path id="Layer" fill-rule="evenodd" class="s5" d="m256.3 267.4c-0.1-1.2 0.1-2.3 0.5-3.4 0.5-1.1 1.1-2 2-2.8 0.8-0.8 1.8-1.4 2.9-1.8 1.1-0.3 2.2-0.4 3.4-0.3q0.8 0 1.7 0.1 0.8 0.2 1.7 0.5 0.8 0.3 1.5 0.8 0.7 0.4 1.3 1 0.6 0.7 1 1.4 0.4 0.7 0.7 1.5 0.2 0.8 0.3 1.7 0.1 0.8 0 1.7 0 0.6 0 1.2-0.1 0.6-0.2 1.2-0.2 0.6-0.4 1.2-0.2 0.5-0.5 1.1-0.2 0.4-0.5 0.8-0.4 0.4-0.7 0.8-0.4 0.3-0.8 0.6-0.4 0.3-0.9 0.6-0.5 0.2-1.1 0.4-0.5 0.2-1.1 0.3-0.6 0.1-1.2 0.1-0.6 0.1-1.2 0-0.6 0-1.2 0-0.6-0.1-1.1-0.2-0.6-0.1-1.2-0.3-0.5-0.2-1.1-0.5-0.4-0.2-0.8-0.5-0.5-0.3-0.8-0.7-0.4-0.4-0.7-0.8-0.3-0.4-0.5-0.9-0.3-0.5-0.5-1.1-0.2-0.6-0.3-1.2-0.2-0.7-0.2-1.3 0-0.6 0-1.2zm5.1 0.1q-0.1 0.5 0 1 0 0.5 0.1 0.9 0.1 0.5 0.3 0.9 0.2 0.4 0.4 0.9 0.5 0.5 1.1 0.8 0.7 0.3 1.4 0.3 0.7 0 1.4-0.2 0.7-0.3 1.2-0.8 0.2-0.4 0.5-0.8 0.2-0.5 0.3-1 0.1-0.5 0.2-1 0-0.5 0-1 0-0.4 0-0.9 0-0.4-0.1-0.8-0.1-0.5-0.3-0.9-0.2-0.4-0.5-0.8-0.2-0.3-0.5-0.5-0.2-0.2-0.6-0.3-0.3-0.2-0.6-0.2-0.4-0.1-0.7-0.1-0.4 0-0.7 0-0.3 0.1-0.7 0.2-0.3 0.1-0.6 0.3-0.3 0.2-0.5 0.5-0.3 0.4-0.5 0.8-0.2 0.4-0.4 0.9-0.1 0.4-0.2 0.9 0 0.5 0 0.9z"/>
		<path id="Layer" fill-rule="evenodd" class="s5" d="m275.9 276.2l0.5-16.4 8.5 0.2q0.5 0 0.9 0.1 0.5 0 0.9 0 0.5 0.1 0.9 0.2 0.5 0.1 0.9 0.2 0.3 0.1 0.6 0.3 0.3 0.2 0.5 0.4 0.3 0.2 0.5 0.4 0.2 0.2 0.4 0.5 0.2 0.3 0.3 0.6 0.2 0.3 0.2 0.7 0.1 0.3 0.2 0.7 0 0.3 0 0.7 0 0.6-0.2 1.2-0.1 0.5-0.4 1.1-0.3 0.5-0.8 0.9-0.4 0.4-0.9 0.7-0.3 0.1-0.5 0.2-0.2 0.1-0.4 0.2-0.3 0-0.5 0.1-0.2 0-0.4 0.1 0.1 0 0.3 0.1 0.2 0.1 0.3 0.2 0.2 0 0.3 0.1 0.2 0.1 0.4 0.2 0.1 0.1 0.2 0.2 0.1 0.1 0.2 0.3 0.1 0.1 0.2 0.2 0.1 0.1 0.1 0.2 0.1 0.1 0.2 0.3 0.1 0.1 0.2 0.2 0.1 0.1 0.2 0.3 0 0.1 0.1 0.2l2.3 4.9-5.7-0.2-2.6-5.1q0-0.2-0.1-0.4-0.1-0.1-0.2-0.3-0.2-0.2-0.3-0.3-0.1-0.2-0.2-0.3-0.2-0.1-0.3-0.2-0.2-0.1-0.3-0.1-0.2-0.1-0.4-0.1-0.1 0-0.3 0h-0.4l-0.2 6.6zm5.4-9.6l2.1 0.1q0.2 0 0.4 0 0.1-0.1 0.3-0.1 0.2 0 0.3 0 0.2-0.1 0.4-0.1 0.1 0 0.2-0.1 0.1 0 0.2-0.1 0.1 0 0.2-0.1 0.1-0.1 0.2-0.2 0.1-0.1 0.2-0.2 0-0.1 0.1-0.3 0-0.1 0-0.2 0.1-0.2 0.1-0.3 0-0.2-0.1-0.3 0-0.2 0-0.4-0.1-0.1-0.2-0.3-0.1-0.1-0.2-0.2-0.2-0.2-0.4-0.3-0.3-0.1-0.5-0.1-0.3-0.1-0.5-0.1-0.3 0-0.5 0l-2.2-0.1z"/>
		<path id="Layer" class="s5" d="m284 304.2q-0.1 0-0.3-0.1-0.1 0-0.2 0-0.2-0.1-0.3-0.2-0.1-0.1-0.2-0.2l-8.6-9.3-9.2 8.4q-0.2 0.2-0.4 0.3-0.3 0.1-0.5 0-0.3 0-0.5-0.1-0.3-0.1-0.5-0.3l-8.5-9.3-9.3 8.4q-0.1 0.2-0.4 0.3-0.2 0-0.5 0-0.3 0-0.5-0.1-0.2-0.1-0.4-0.3l-8.6-9.4-9.2 8.5q-0.1 0.1-0.2 0.1-0.1 0.1-0.3 0.2-0.1 0-0.2 0-0.2 0-0.3 0-0.1 0-0.3 0-0.1-0.1-0.2-0.1-0.1-0.1-0.2-0.1-0.1-0.1-0.2-0.2l-8.6-9.4-9.2 8.5q-0.2 0.1-0.4 0.2-0.3 0.1-0.5 0.1-0.3 0-0.5-0.1-0.3-0.1-0.5-0.3-0.1-0.2-0.2-0.5-0.1-0.2-0.1-0.5 0-0.2 0.1-0.5 0.1-0.2 0.3-0.4l10.2-9.3q0.2-0.2 0.5-0.3 0.2-0.1 0.5 0 0.2 0 0.5 0.1 0.2 0.1 0.4 0.3l8.5 9.4 9.3-8.5q0.1-0.1 0.2-0.1 0.1-0.1 0.2-0.2 0.1 0 0.3 0 0.1 0 0.2 0 0.2 0 0.3 0 0.1 0 0.2 0.1 0.1 0.1 0.2 0.1 0.2 0.1 0.2 0.2l8.6 9.4 9.2-8.5q0.2-0.1 0.5-0.2 0.2-0.1 0.5-0.1 0.2 0 0.5 0.1 0.2 0.1 0.4 0.3l8.5 9.4 9.3-8.5q0.2-0.1 0.4-0.2 0.3-0.1 0.5-0.1 0.3 0 0.5 0.1 0.3 0.1 0.4 0.3l9.6 10.4q0.3 0.3 0.3 0.7 0.1 0.4-0.1 0.7-0.1 0.4-0.5 0.6-0.3 0.2-0.7 0.2z"/>
		<path id="Layer" class="s3" d="m125.8 345.7l-6.3-3-5.6-27.2 3-3.3 8.9 33.5z"/>
		<path id="Layer" class="s3" d="m125.8 345.7l8.3-4.9-7.2-22.4-10-6.2 8.9 33.5z"/>
		<path id="Layer" class="s7" d="m125.8 345.7l8.3-4.9-7.2-22.4-10-6.2 8.9 33.5z"/>
		<path id="Layer" class="s2" d="m262 350.6h-0.7c-1.3 0-2.6-0.6-3.5-1.6-0.9-0.9-1.4-2.2-1.4-3.5 0.1-1.4 0.6-2.6 1.6-3.5 1-0.9 2.3-1.4 3.6-1.4 7.7 0.3 24-4.5 33.3-13.5q0.2-0.2 0.4-0.4 0.3-0.2 0.5-0.3 0.3-0.2 0.6-0.3 0.2-0.1 0.5-0.2c15.8-4.7 21.7 4.8 21.9 5.2l-8.6 5.1q0 0 0 0.1 0 0 0.1 0 0 0 0 0.1 0 0 0 0c-0.1-0.1-2.3-3-9.4-1.2-11.7 10.6-29.7 15.4-38.9 15.4z"/>
		<path id="Layer" class="s3" d="m261.4 357.3l-18.2-1.2-1.4-33.6 24.4 0.9-4.8 33.8z"/>
		<path id="Layer" class="s3" d="m261.4 357.3l4.3-4.3 2.6-20.9-2.1-8.7-4.8 33.8z"/>
		<path id="Layer" class="s7" d="m261.4 357.3l4.3-4.3 2.6-20.9-2.1-8.7-4.8 33.8z"/>
		<path id="Layer" class="s2" d="m366.9 344.5q-0.2 0-0.5 0-0.2 0-0.4-0.1-0.3-0.1-0.5-0.2-0.2-0.1-0.4-0.3c-10.4-7.9-24.4-21.9-29.8-35.4q-0.1-0.1-0.1-0.2 0-0.1 0-0.1-0.1-0.1-0.1-0.2 0-0.1 0-0.1c-2.6-15.7-5.1-48.6-5.3-50 0-0.8 0.2-1.6 0.8-2.2 0.5-0.6 1.2-0.9 2-1 0.8-0.1 1.6 0.2 2.2 0.7 0.6 0.5 1 1.3 1 2.1 0 0.3 2.6 33.5 5.2 49 5.4 13.2 20 26.7 27.8 32.7 0.5 0.3 0.8 0.9 1 1.5 0.2 0.6 0.2 1.2 0 1.8-0.2 0.6-0.6 1.1-1.1 1.5-0.5 0.3-1.1 0.5-1.8 0.5z"/>
		<path id="Layer" class="s2" d="m380.8 346.1c-2.3-0.1-5-1.1-7.8-3.2-0.7-0.4-1.1-1.1-1.2-1.9-0.2-0.8 0-1.6 0.5-2.3 0.5-0.6 1.2-1 1.9-1.2 0.8-0.1 1.6 0.1 2.3 0.6 2.5 1.8 3.8 2 4.3 2 0.8 0 1.5 0.3 2.1 0.8 0.6 0.6 0.9 1.4 0.9 2.2 0 0.8-0.3 1.5-0.9 2.1-0.6 0.6-1.3 0.9-2.1 0.9z"/>
		<path id="Layer" class="s3" d="m373.8 342.8c3.2-9.5 16.4-7.6 20.9-6.2q1.5 0.4 2.9 0.9 1.4 0.6 2.8 1.2 1.4 0.6 2.7 1.2 1.4 0.7 2.7 1.5c2.4 1.6 2.5 4.3-0.8 5.8-4 1.9-14.2 0.2-14.2 0.2 5.3 2.3 0 6-9.2 2.4-3-1.2-8.9-3.5-7.8-7z"/>
		<path id="Layer" class="s2" d="m341.9 262c-1.2 8.1-7.9 14.1-13.4 13.3-5.5-0.8-5.7-8-4.5-16.2 1.2-8.1 3.4-14 8.8-13.2 5.5 0.8 10.3 8 9.1 16.1z"/>
		<path id="Layer" class="s2" d="m209.9 229.7c-0.5 0-0.8-0.4-0.8-0.8 0-0.5 0.3-0.8 0.8-0.8 0.4 0 0.8 0.3 0.8 0.8 0 0.4-0.4 0.8-0.8 0.8z"/>
		<path id="Layer" class="s2" d="m218.2 234.8c0 0.3-0.2 0.6-0.5 0.7-0.3 0.2-0.7 0.1-0.9-0.1-0.2-0.3-0.3-0.6-0.2-0.9 0.2-0.3 0.5-0.5 0.8-0.5q0.2 0 0.3 0 0.2 0.1 0.3 0.2 0.1 0.1 0.1 0.3 0.1 0.1 0.1 0.3z"/>
		<path id="Layer" class="s2" d="m219.1 331.7c0 0.3-0.2 0.6-0.5 0.7-0.3 0.2-0.6 0.1-0.9-0.1-0.2-0.3-0.3-0.6-0.1-0.9 0.1-0.3 0.4-0.5 0.7-0.5q0.2 0 0.3 0 0.2 0.1 0.3 0.2 0.1 0.1 0.2 0.3 0 0.1 0 0.3z"/>
		<path id="Layer" class="s2" d="m226.6 337.6c0 0.3-0.2 0.6-0.5 0.7-0.3 0.2-0.6 0.1-0.9-0.1-0.2-0.3-0.3-0.6-0.1-0.9 0.1-0.3 0.4-0.5 0.7-0.5q0.2 0 0.3 0 0.2 0.1 0.3 0.2 0.1 0.1 0.2 0.3 0 0.1 0 0.3z"/>
	</g>
	<g id="freepik--robot-parts--inject-2">
		<path id="Layer" fill-rule="evenodd" class="s2" d="m82.5 347.4q-1.1 0-2.1-0.3-1.1-0.3-2-0.8-1-0.5-1.8-1.2-0.8-0.8-1.4-1.6-0.1-0.2-0.1-0.4 0-0.2 0.2-0.3 0.2-0.2 0.4-0.1 0.2 0 0.3 0.2c1.9 2.7 6 4.1 7.8 3.3q0.1 0 0.1-0.1 0.1 0 0.2-0.1 0 0 0.1-0.1 0 0 0.1-0.1-0.7-0.3-1.3-0.7-0.6-0.5-1.1-1.1-0.4-0.5-0.7-1.2-0.3-0.7-0.5-1.4c-0.2-1.3-0.4-3 0.7-3.3 1.4-0.3 3.3 3.2 4 5.8q0 0.2 0.1 0.3 0 0.2 0 0.4 0 0.2 0 0.3 0 0.2 0 0.4 0.2 0 0.4 0.1 0.3 0 0.5 0 0.2 0 0.4 0 0.3 0 0.5 0 0.2 0 0.4-0.1 0.2 0 0.4-0.1 0.1-0.1 0.3-0.3 0.1-0.1 0.3-0.2-0.5-0.4-0.9-0.9-0.4-0.4-0.7-1-0.3-0.5-0.5-1.1-0.2-0.6-0.2-1.2c-0.4-2.8-0.1-3.2 0.2-3.5q0 0 0.1-0.1 0.1 0 0.2 0 0.1 0 0.2 0 0.1 0 0.2 0c1 0.5 2.3 4.4 2.6 6.6q0 0.1 0 0.2 0 0 0 0.1 0 0.1 0 0.2 0 0.1 0 0.2 0.1 0 0.3 0.1 0.2 0 0.3 0.1 0.2 0 0.4 0 0.1 0 0.3 0 0.3 0 0.7 0 0.3 0 0.6-0.1 0.3-0.1 0.6-0.2 0.3-0.1 0.5-0.3-0.2-0.1-0.4-0.3c-1-0.9-1.4-2.3-1.3-4.3 0.2-1.6 0.5-2.5 1.2-2.7q0.1-0.1 0.3-0.1 0.1 0 0.3 0 0.2 0.1 0.3 0.1 0.2 0.1 0.3 0.2 0.5 0.6 0.9 1.2 0.3 0.7 0.6 1.4 0.2 0.7 0.2 1.5 0.1 0.7 0 1.5 0 0.1-0.1 0.3 0 0.1-0.1 0.3 0 0.1-0.1 0.3-0.1 0.1-0.2 0.2c1.8 0.3 4.4-0.2 6.6-0.7q0.3 0 0.4 0.1 0.2 0.1 0.3 0.3 0 0.2-0.1 0.3-0.1 0.2-0.3 0.3c-2.7 0.6-5.6 1.2-7.7 0.6q-0.4 0.3-0.8 0.5-0.4 0.2-0.9 0.4-0.4 0.1-0.9 0.2-0.4 0.1-0.9 0.1-0.2 0-0.4-0.1-0.2 0-0.4 0-0.2-0.1-0.4-0.1-0.2-0.1-0.4-0.2-0.2 0.3-0.4 0.5-0.3 0.3-0.6 0.4-0.2 0.2-0.5 0.3-0.3 0.1-0.7 0.1-0.2 0.1-0.5 0.1-0.3 0-0.6-0.1-0.3 0-0.6 0-0.2-0.1-0.5-0.2-0.1 0.2-0.2 0.3-0.1 0.1-0.2 0.3-0.2 0.1-0.3 0.2-0.1 0.1-0.3 0.1-0.2 0.1-0.4 0.2-0.2 0-0.4 0.1-0.2 0-0.5 0-0.2 0-0.4 0zm-0.8-8.3q-0.1 0.3-0.1 0.6 0 0.2 0 0.5 0 0.2 0 0.5 0.1 0.2 0.1 0.5 0.1 0.6 0.4 1.1 0.2 0.6 0.6 1.1 0.4 0.5 0.8 0.9 0.5 0.3 1.1 0.6 0-0.1 0-0.2-0.1-0.1-0.1-0.2 0-0.1 0-0.1 0-0.1 0-0.2c-0.8-2.9-2.3-4.8-2.8-5.1zm5.5-0.8q0 0.2 0 0.5 0 0.2 0.1 0.5 0 0.3 0 0.5 0.1 0.3 0.1 0.5 0 0.5 0.2 0.9 0.1 0.5 0.3 0.9 0.2 0.4 0.4 0.8 0.3 0.3 0.6 0.7-0.1-0.7-0.2-1.4-0.2-0.7-0.4-1.4-0.2-0.6-0.5-1.3-0.3-0.6-0.6-1.2zm6.3-0.9c0 0-0.4 0.2-0.5 1.9-0.1 1.6 0.1 2.8 0.9 3.5q0.1 0 0.2 0.1 0 0 0.1 0.1 0.1 0 0.2 0 0 0.1 0.1 0.1 0.1-0.1 0.2-0.2 0.1-0.1 0.2-0.2 0-0.2 0.1-0.3 0-0.1 0.1-0.3 0-0.6 0-1.1-0.1-0.6-0.2-1.2-0.2-0.6-0.4-1.1-0.3-0.5-0.6-1c-0.2-0.3-0.4-0.3-0.4-0.3z"/>
		<path id="Layer" class="s2" d="m228.9 355l2.7-4.7-2.7-4.7h-2.9l1.6 4.7-1.6 4.7h2.9z"/>
		<path id="Layer" class="s2" d="m226.2 352.7c-0.7 0.1-1.4-0.2-1.9-0.6-0.5-0.5-0.7-1.1-0.7-1.8 0-0.7 0.2-1.3 0.7-1.8 0.5-0.5 1.2-0.7 1.9-0.7l-4.6-0.9-1.3 3.7 2.1 3.2z"/>
		<path id="Layer" fill-rule="evenodd" class="s3" d="m229.3 350.3l-2.7 4.7h-5.5l-2.7-4.7 2.7-4.7h5.5zm-4.5 2.2q0.4-0.1 0.8-0.5 0.3-0.3 0.5-0.8 0.2-0.4 0.2-0.9c0-1-0.6-1.9-1.5-2.3-1-0.4-2-0.2-2.7 0.6-0.7 0.7-0.9 1.7-0.5 2.6 0.4 0.9 1.2 1.5 2.2 1.5q0.5 0 1-0.2z"/>
		<path id="Layer" class="s3" d="m417.9 345.3l-2-3.5 2-3.5h2.1l-1.2 3.5 1.2 3.5h-2.1z"/>
		<path id="Layer" class="s3" d="m419.9 343.6c0.5 0 1-0.1 1.4-0.5 0.3-0.3 0.6-0.8 0.6-1.3 0-0.5-0.3-1-0.6-1.4-0.4-0.3-0.9-0.5-1.4-0.4l3.4-0.7 0.9 2.7-1.5 2.4z"/>
		<path id="Layer" fill-rule="evenodd" class="s2" d="m419.6 338.3h4l2 3.5-2 3.5h-4l-2-3.5zm2 5.3c0.7 0 1.4-0.5 1.7-1.1 0.3-0.7 0.1-1.5-0.4-2-0.5-0.5-1.3-0.7-2-0.4-0.7 0.3-1.1 0.9-1.1 1.7q0 0.3 0.1 0.7 0.2 0.3 0.4 0.5 0.3 0.3 0.6 0.4 0.4 0.2 0.7 0.2z"/>
		<path id="Layer" class="s2" d="m343 349.9h4.5q0.4 0 0.8-0.2 0.4-0.1 0.7-0.4 0.3-0.3 0.5-0.7 0.1-0.4 0.1-0.8 0-0.5-0.1-0.9-0.2-0.3-0.5-0.6-0.3-0.3-0.7-0.5-0.4-0.2-0.8-0.2h-4.5q-0.4 0-0.8 0.2-0.4 0.1-0.7 0.4-0.3 0.3-0.5 0.7-0.1 0.4-0.1 0.9 0 0.4 0.1 0.8 0.2 0.4 0.5 0.7 0.3 0.3 0.7 0.4 0.4 0.2 0.8 0.2z"/>
		<path id="Layer" class="s3" d="m335.7 345.9c0.9-1.6 2.6-2.5 4.4-2.3 1.7 0.1 3.2 1.3 3.8 3 0.5 1.7 0 3.6-1.3 4.8-1.4 1.1-3.3 1.4-4.9 0.6q-0.8-0.4-1.4-1.1-0.6-0.7-0.8-1.5-0.3-0.9-0.3-1.8 0.1-0.9 0.5-1.7z"/>
		<path id="Layer" class="s2" d="m338.2 352.6l-1.3-0.6 4.4-9.1 1.2 0.6z"/>
	</g>
</svg>