<svg version="1.2" xmlns="http://www.w3.org/2000/svg" viewBox="0 0 2000 1934" width="2000" height="1934">
	<title>gameheaven</title>
	<style>
		.s0 { fill: #eeeeee } 
	</style>
	<path id="Path 0" fill-rule="evenodd" class="s0" d="m997.3 0.1c2.8-0.1 4.6 0.6 7.6 3.1 2.1 1.8 13 8.8 24.2 15.4 11.2 6.7 35.5 20.9 53.9 31.4 18.4 10.6 43.6 25.1 56 32.3 12.4 7.1 24.5 14.1 27 15.5 2.5 1.4 14.2 8.3 26 15.2 11.8 6.9 27.8 16.2 35.5 20.5 7.7 4.3 31.6 18 53 30.4 21.5 12.3 56.6 32.5 78 44.9 21.5 12.4 49.3 28.4 62 35.7 12.7 7.3 36.1 20.8 52 30 16 9.3 35.1 20.3 42.5 24.5 7.4 4.2 34.2 19.5 59.5 33.9 25.3 14.5 56.1 32.2 68.5 39.4 12.4 7.2 27.9 16.1 34.5 19.8 6.6 3.7 17.2 9.7 23.5 13.4 6.3 3.7 18.5 10.8 27 15.6 8.5 4.9 17 10.5 18.8 12.4 2.3 2.5 3.2 4.4 3.1 6.8 0 1.7 0.3 44.1 0.6 94.2 0.5 83 0.7 91.3 2.3 94.4 1 2 3.8 4.8 6.7 6.7 2.8 1.7 14.9 8.5 27 15.1 12.1 6.6 34.4 18.7 49.5 26.8 15.1 8.1 40.1 21.5 55.5 29.8 15.4 8.2 38.6 20.7 51.5 27.7 12.9 7 25.3 13.8 27.5 15.2 2.2 1.4 7.8 4.6 12.5 7.3 4.7 2.6 9.5 5.7 10.8 6.9 1.2 1.1 2.2 2.9 2.2 3.8 0 1.1-2.2 3.2-5.2 5.2-2.9 1.8-13.2 7.5-22.8 12.6-9.6 5.1-19.1 9.5-21 9.7-2.9 0.4-5.8-0.7-16.5-6.2-7.2-3.7-19.7-10.5-28-15-8.2-4.6-23.5-12.9-34-18.5-10.4-5.7-25.7-13.9-34-18.3-8.2-4.4-23.3-12.5-33.5-18-10.2-5.5-23.7-13-30-16.7-6.3-3.7-16.4-9.4-22.5-12.7-6-3.3-18.7-10.2-28-15.4-9.3-5.1-22.6-12.4-29.5-16.2-6.9-3.9-28.5-15.8-48-26.5-19.5-10.7-43.4-23.8-53-29.2-9.6-5.3-29.8-16.4-44.8-24.6-15-8.2-41.1-22.5-58-31.8-18.1-10-32.1-17.1-34.2-17.3-2.6-0.3-5.5 0.6-11.5 3.5-4.4 2.1-27.8 14.4-52 27.2-24.2 12.8-58.8 31.1-77 40.8-18.2 9.7-44.5 23.8-58.5 31.3-15.5 8.3-26.3 14.7-27.5 16.3-1.8 2.5-1.9 2.9-0.5 5.3 0.8 1.5 5.6 5.1 10.5 8.1 5 3 19.1 10.7 31.5 17.2 12.4 6.4 24.4 12.9 26.8 14.3 2.3 1.5 4.8 3.7 5.5 5 0.9 1.6 1.3 13.6 2.2 89.6l4.5 4.6 5.3-1.8c2.8-1 45.5-21.7 94.7-45.9 49.2-24.3 96.5-47.4 105-51.5 8.5-4.1 17.1-7.8 19-8.3 2.6-0.6 4.7-0.5 8 0.7 2.5 0.8 18.7 9.1 36 18.3 17.3 9.2 40.7 21.6 52 27.5 11.3 5.9 26.1 13.7 33 17.5 6.9 3.7 26 13.8 42.5 22.5 16.5 8.7 33.8 17.8 38.5 20.3 4.7 2.4 18.8 9.9 31.5 16.4 12.7 6.6 33.1 17.5 45.5 24.3 12.4 6.7 25 13.5 28 15 3 1.5 6.5 3.7 7.8 4.9 1.2 1.1 2.2 2.9 2.2 3.9 0 0.9-1.5 2.6-3.2 3.7-1.8 1.1-13.1 7-25 13-12 6.1-22.5 11-23.3 11-0.8 0-4.1-0.9-7.2-2-3.2-1.1-19.8-9.3-36.8-18.2-17-8.9-34.8-18.3-39.5-20.9-4.7-2.6-16.2-8.7-25.5-13.7-9.3-4.9-27.3-14.5-40-21.2-12.7-6.7-40.3-21.2-61.5-32.3-21.2-11-49.7-25.8-63.5-33-20.7-10.8-25.8-13-29.5-13.1-3.9-0.1-9.7 2.5-44 19.2-21.7 10.6-40.5 20.3-41.8 21.5-1.2 1.2-2.3 2.9-2.3 3.7 0 0.8 0.8 2.3 1.8 3.2 1 1 7.4 4.9 14.3 8.8 6.9 3.9 18.8 10.2 26.5 14.1 7.7 3.9 33.1 17.3 56.5 29.6 23.4 12.4 54.4 28.9 69 36.6 14.6 7.7 34.6 18.4 44.5 23.7 9.9 5.4 23.1 12.3 29.3 15.4 6.1 3.1 14.5 6.7 18.5 8.1 3.9 1.3 11.9 3.2 17.7 4.1 9.1 1.5 12 1.5 21.5 0.5 6-0.7 16-2.3 22-3.7 10.9-2.5 11-2.5 16 1.3v575.2l-2.1 2.8c-1.2 1.6-10.4 7.7-22 14.4-10.9 6.3-30.2 17.5-42.9 24.9-12.7 7.3-43.2 25.3-68 39.8-24.7 14.6-47 27.7-49.5 29.1-2.5 1.3-16.7 9.5-31.5 18.2-14.8 8.6-36.9 21.5-49 28.7-12.1 7.1-35.7 21-52.5 30.9-16.8 9.9-40.6 23.9-53 31.2-12.4 7.3-32.4 19-44.5 26.1-12.1 7-28.3 16.5-36 21.2-7.7 4.7-20.7 12.5-29 17.3-8.2 4.9-22.4 13.2-31.5 18.5-9.1 5.3-25.7 15.1-37 21.7-11.3 6.6-30.8 17.9-43.5 25-12.7 7.2-36 20.8-52 30.3-16 9.5-41.2 24.6-56 33.5-14.8 8.9-30.1 18-34 20.2-3.8 2.2-8 5.2-9.2 6.7-2 2.3-3 2.6-8.3 2.6-5.3 0-6.3-0.3-8.7-2.8-1.6-1.6-24.2-15.6-50.3-31.1-26.1-15.6-57.8-34.6-70.5-42.1-12.6-7.6-32.2-19.1-43.5-25.5-11.3-6.5-24.5-14.3-29.5-17.3-5-3-16.9-10-26.5-15.4-9.6-5.5-18.6-10.8-20-11.8-1.4-0.9-9-5.4-17-10-8-4.6-24.2-14-36-21-11.8-7-36.3-21.4-54.5-32-18.1-10.6-42.2-24.8-53.5-31.5-11.3-6.8-25.9-15.4-32.5-19.2-6.6-3.8-26.8-15.6-45-26.2-18.1-10.7-41.5-24.4-52-30.6-10.4-6.2-29.8-17.4-43-25-13.2-7.6-41.3-23.9-62.5-36.3-21.2-12.3-49.5-29-63-37-13.5-7.9-27-16.1-30-18.1-3-2-6.3-5.2-7.5-7.1-2-3.5-2-3.6-2-290.5 0-272.5 0.1-287.1 1.7-288.7 1-1 2.4-1.8 3-1.8 0.7 0 5.8 0.9 11.3 2 5.5 1.1 15.9 2.3 23 2.6 10.7 0.5 14.7 0.3 22.5-1.4 5.2-1 13.8-3.6 19-5.7 5.2-2 14.7-6.4 21-9.7 6.3-3.4 30.9-16.1 54.5-28.3 23.7-12.2 52.7-27.3 64.5-33.7 11.8-6.3 32.1-17.1 45-23.8 12.9-6.7 33.8-17.7 46.4-24.4 13.3-7 23.2-12.9 23.8-14.1 0.7-1.4 0.7-2.7-0.1-4.3-0.7-1.4-5.9-4.5-15.3-9.1-7.9-3.8-27.1-13.1-42.8-20.7-19.7-9.5-29.6-13.8-32-13.8-2.3 0-7 1.8-13.5 5.1-5.5 2.8-21.7 11.4-36 19-14.3 7.7-33.4 17.9-42.5 22.8-9.1 4.8-24.8 13.1-35 18.5-10.2 5.4-30 15.7-44 23-14 7.3-34.3 17.9-45 23.5-10.7 5.7-33.4 17.6-50.5 26.5-20.5 10.8-32.4 16.4-35 16.7-3.4 0.3-5.6-0.5-14.5-5.2-5.8-3-16.6-8.6-24-12.4-7.4-3.7-13.8-7.5-14.2-8.4-0.5-1-0.3-2.6 0.2-3.7 0.6-1.1 6.7-5.1 13.8-8.9 7-3.8 24.9-13.3 39.7-21.1 14.9-7.9 35.3-18.7 45.5-24 10.2-5.4 32.5-17.1 49.5-26.1 17.1-8.9 39.4-20.8 49.7-26.3 10.3-5.6 28.7-15.3 40.9-21.6 12.2-6.3 29.9-15.7 39.3-20.9 9.4-5.1 22.1-12 28.1-15.2 7.6-4.1 12.2-6 15-6.1 3.1-0.1 7.4 1.5 19 6.9 8.3 3.9 27.8 13.2 43.5 20.6 15.7 7.4 42.7 20.3 60 28.7 17.3 8.3 47.9 23.3 68 33.1 20.1 9.9 37.6 17.9 39 17.9 1.4 0 3.2-0.5 4-1 1.3-0.8 1.6-7.3 2-45.3 0.5-40 0.7-44.6 2.3-47 0.9-1.5 4.3-4.2 7.4-6 3.2-1.7 18.7-10.2 34.7-18.7 18.3-9.8 29.7-16.5 33.1-21l-2-2.6c-1.1-1.4-11.2-7.8-22.5-14.1-11.3-6.3-30.4-16.9-42.5-23.5-12.1-6.7-27.6-15.1-34.5-18.8-6.9-3.6-21.7-11.5-33-17.4-11.3-6-31.3-16.6-44.5-23.6-13.2-7-28.6-15.1-34.2-17.9-7.6-3.8-11.4-5.1-14.5-5.1-3.5 0-8.1 2.1-24.8 10.9-11.3 6-23 12.3-26 14.1-3 1.8-14 7.8-24.5 13.3-10.4 5.5-28.9 15.5-41 22.2-12.1 6.7-34.4 18.9-49.5 27-15.1 8.1-36.5 19.8-47.5 25.8-11 6.1-24.9 13.7-31 17-6 3.2-18.4 10-27.5 15.1-9.1 5.1-27.3 15.2-40.5 22.4-13.2 7.1-38.2 20.5-55.5 29.7-17.3 9.2-42.5 22.6-56 29.8-13.5 7.1-29.7 15.7-36 19.2-6.3 3.4-17.3 9.2-24.5 13-11.2 5.8-13.5 6.7-16.5 6.1-1.9-0.3-8.9-3.6-15.5-7.3-6.6-3.6-15.7-8.8-20.2-11.5-4.6-2.6-8.8-5.8-9.4-7.1-1-1.9-0.8-2.5 1.7-4.7 1.6-1.4 10.6-6.9 19.9-12.1 9.4-5.3 30.5-16.7 47-25.4 16.5-8.7 39-20.6 50-26.5 11-5.9 29.5-15.8 41-22.1 11.6-6.2 26.6-14.3 33.5-17.9 6.9-3.7 18.8-10.2 26.5-14.4 7.7-4.3 16.4-9.2 19.3-10.9 3.3-2 5.8-4.4 6.7-6.5 1.3-2.7 1.5-16.2 1.5-96.2 0-79.9 0.2-93.5 1.5-96.3 1-2.1 4-4.9 9.2-8.3 4.3-2.8 26.7-16.1 49.8-29.4 23.1-13.4 55.3-32 71.5-41.3 16.2-9.4 42.6-24.5 58.5-33.7 16-9.2 51.7-30 79.5-46.2 27.8-16.2 61.8-35.9 75.5-43.8 13.8-7.8 30.2-17.3 36.5-21 6.3-3.7 30.9-18 54.5-31.7 23.7-13.7 68.2-39.6 99-57.5 30.8-17.9 63-36.5 71.5-41.3 8.5-4.9 21.4-12.3 28.5-16.5 7.2-4.2 23.4-13.7 36-21 12.7-7.3 32.4-18.7 43.8-25.4 11.5-6.7 22.3-13.5 24-15.2 2.3-2.3 4.2-3.2 7-3.3zm-41.3 270.9c-9.1 0.6-25 2.2-35.5 3.6-10.5 1.4-26.2 4.1-35 6-8.8 1.9-23 5.8-31.5 8.7-8.5 2.8-21.1 7.9-28 11.4-6.9 3.4-15 8.2-18 10.6-3 2.4-7.7 7.3-10.4 10.8-2.7 3.5-5.8 8.4-7 10.9-1.7 3.7-2.1 6.4-2.1 15.5 0 10.4 0.2 11.4 3.4 18 2 4.2 5.6 9.4 9 12.9 3.1 3.2 8.1 7.5 11.1 9.6 3 2 9.7 5.8 14.8 8.4 5 2.5 14.5 6.4 21 8.6 6.4 2.3 17.1 5.4 23.7 7 6.6 1.6 16 3.6 21 4.4 5 0.9 16.9 2.4 26.5 3.5 9.6 1.1 24.4 2.5 32.8 3 8.3 0.6 30.2 1.1 48.5 1.1 18.2 0 41.3-0.5 51.2-1 9.9-0.6 24.3-1.7 32-2.6 7.7-0.8 21.4-2.8 30.5-4.5 9.1-1.6 22.3-4.6 29.5-6.6 7.2-1.9 16.8-5 21.5-6.8 4.7-1.8 11.4-4.6 15-6.2 3.6-1.6 9.2-4.7 12.5-6.8 3.3-2.1 8.2-5.9 10.9-8.4 2.6-2.5 5.9-6.4 7.2-8.6 1.3-2.2 3.2-6.7 4.4-10 1.3-3.8 2-8.5 2-13 0-4.4-0.7-9.2-2-13-1.1-3.3-3.6-8.3-5.4-11-1.8-2.8-5.8-7.4-8.7-10.4-3-2.9-8.1-7.2-11.4-9.4-3.3-2.3-10-6-15-8.3-5-2.4-15.1-6.3-22.5-8.8-7.4-2.5-19.8-5.9-27.5-7.6-7.7-1.8-23-4.5-34-6.1-11-1.7-28.1-3.6-38-4.4-9.9-0.8-28.1-1.6-40.5-1.8-12.4-0.3-26.3-0.3-31-0.1-4.7 0.2-15.9 0.8-25 1.4zm13 206.1c-4.1 1.2-11.1 3.8-15.5 5.8-4.4 2-10.2 5.2-13 7.1-2.7 1.8-7.9 5.6-11.3 8.4-3.5 2.8-9.4 8.8-13 13.3-3.7 4.5-8.2 10.5-9.9 13.5-1.8 2.9-4.9 9.3-6.9 14.3-2 5-4.8 13.3-6.2 18.5-2.1 8.1-2.5 11.8-2.5 24.5 0 12.2 0.4 16.7 2.2 24 1.2 5 3.8 12.7 5.7 17.2 1.9 4.6 5.2 11.3 7.5 15 2.3 3.8 6.4 9.7 9.3 13.2 2.8 3.5 8 9.1 11.6 12.4 3.6 3.2 10.1 8.1 14.5 10.8 4.4 2.7 11.4 6.3 15.5 8 4.1 1.8 11.8 4.3 17 5.6 6.4 1.7 13.6 2.6 22 3 7.8 0.4 15.5 0.2 20.5-0.6 4.4-0.7 12.3-2.4 17.5-3.8 5.2-1.3 12.7-3.9 16.5-5.7 3.8-1.8 9.9-5.2 13.5-7.5 3.6-2.4 11-9 16.5-14.6 6.1-6.1 12.1-13.5 15.2-18.6 2.9-4.6 6.9-12.4 8.9-17.4 2-5 4.5-13 5.5-18 1.3-6 1.9-13.2 1.9-21.5-0.1-6.9-0.7-15.9-1.4-20-0.8-4.1-2.5-11-4-15.3-1.4-4.2-4-10.5-5.7-14-1.7-3.4-5.3-9.3-8-13.2-2.6-3.9-9-11.1-14.1-16-5.1-5-12.2-11.1-15.8-13.5-3.6-2.4-10.5-6.3-15.5-8.6-5-2.4-13.5-5.5-19-6.9-8.2-2.2-12.8-2.7-25-3-8.2-0.2-17.7 0-21 0.6-3.3 0.5-9.4 1.9-13.5 3zm-147.5 220.4c-7.7 4.5-21 12.3-29.5 17.2-8.5 5-18.4 10.8-21.9 12.9-3.5 2.1-7.3 5.2-8.5 6.7l-2.1 2.8c0.4 180.9 0.8 278.6 1.1 333.9 0.3 55.3 1 107.8 1.5 116.8 0.5 8.9 1.4 17.1 1.9 18.2 0.5 1.1 1.7 2 2.5 2 0.8 0 2.4-1.9 3.4-4.2 1.1-2.4 4.5-13.1 7.6-23.8 3.2-10.7 8.2-27.6 11.2-37.5 3-9.9 6.6-21.8 8-26.5 1.4-4.7 5.8-20.7 9.9-35.5 4.2-14.8 9.3-32.8 11.4-40 2.2-7.2 6.7-23.4 10-36 3.4-12.6 7.9-29.3 10.1-37 2.1-7.7 4.6-15.6 5.4-17.5 0.8-1.9 2.5-4 3.7-4.7 1.3-0.7 5.2-2.3 8.8-3.6 3.6-1.3 9-4 12-5.9 3-1.9 7.6-5.8 10.3-8.6 2.6-2.9 5.8-7.6 7.1-10.4 1.4-2.9 3-8 3.6-11.3 0.7-4 0.8-8 0.1-12-0.5-3.3-1.9-8-3.1-10.5-1.2-2.5-3.9-6.2-5.9-8.3-2-2.1-5.4-4.8-7.6-5.9-2.3-1.2-6.7-2.3-10.5-2.6-4.1-0.3-9.7 0.2-15 1.3-4.7 0.9-12.8 3.2-18 5.1-5.2 1.9-10.5 3.4-11.7 3.4-1.7 0-2.3-0.6-2.3-2.2 0-1.3 1.8-7.9 4-14.8 2.3-6.9 5.9-15.9 8.2-20 2.2-4.1 5.9-10 8.3-13 2.3-3 7.1-8.2 10.6-11.6 3.5-3.3 9.1-7.9 12.4-10.1 3.3-2.2 8.7-5.4 12-7 3.3-1.7 9.8-4.3 14.5-5.8 6-1.9 11.5-2.9 18.5-3.2 6.1-0.3 12.2-0.1 15.5 0.7 3 0.6 10 3.3 15.5 5.9 5.5 2.7 10.9 5.1 12 5.4 1.1 0.3 26.5 0.3 56.5-0.1l54.5-0.8c12.8-6.5 19.5-9.1 23.3-10 3.7-0.9 10.7-1.6 15.7-1.6 5-0.1 12.1 0.7 16 1.6 3.8 0.9 12 4.1 18 7 7.3 3.6 13.8 7.7 19.2 12.3 4.5 3.7 9.9 8.8 12.1 11.3 2.1 2.5 5.7 7.2 8 10.5 2.2 3.3 5.6 9.4 7.5 13.5 1.9 4.1 4.7 11.8 6.2 17 1.5 5.2 2.9 10.7 3.1 12.3 0.3 2.3 0 2.7-2.1 2.7-1.4 0-7.1-1.8-12.7-3.9-5.7-2.1-12.3-4.4-14.8-5.1-2.5-0.6-5.5-2.2-6.7-3.3-1.3-1.2-2.6-3.3-2.9-4.7-0.3-1.4-1.4-3.9-2.4-5.5-1-1.6-3.4-3.8-5.4-4.7-2-1-5.1-1.8-6.8-1.8-1.8 0-4.8 0.9-6.5 2-1.8 1.1-4.2 3.5-5.4 5.3-1.7 2.7-1.9 4.1-1.3 9.2 0.4 3.3 0.7 7.2 0.8 8.7 0.1 1.5-0.9 3.7-2.4 5.3-2.4 2.6-2.7 2.7-10.5 2.1-6.6-0.6-8.6-0.4-11.5 1.1-1.9 1-4.3 3.4-5.4 5.3-1.1 1.9-1.9 5.1-1.9 7 0 1.9 0.8 5 1.7 6.8 0.9 1.7 2.8 3.8 4.4 4.6 1.5 0.8 5.2 1.7 8.2 2 3.3 0.4 6.4 1.5 7.8 2.6 1.2 1.1 3.7 4.8 5.5 8.2 1.7 3.4 5.3 8.5 7.8 11.2 2.5 2.8 6.8 6.3 9.5 7.8 2.7 1.5 8.3 3.9 12.4 5.3 4.1 1.4 8.5 3.2 9.8 4 1.5 1 3 4.1 4.6 9.3 1.3 4.2 5.8 20.3 10.1 35.7 4.2 15.4 10.6 38.3 14.2 51 3.6 12.7 8.3 29.3 10.5 37 2.2 7.7 6.6 23 9.7 34 3.2 11 9 30.8 13 44 4 13.2 8.8 29 10.7 35 1.8 6 4.3 12.6 5.4 14.5 1.9 3.1 2.3 3.3 3.6 2 0.8-0.8 2-4.7 2.5-8.5 0.6-4.4 1.2-90.5 1.5-234l0.5-227c-3.2-5-6.7-8.2-9.8-10.2-3.2-2-13.5-7.9-22.8-13.1-9.3-5.2-26-14.8-37-21.2-11-6.5-21.2-12.3-22.8-12.9-1.9-0.7-3.6-0.7-5.5 0-1.5 0.6-7.2 5.8-12.7 11.6-5.5 5.8-13.4 13.4-17.5 16.8-4.1 3.4-11.3 8.8-16 12-4.7 3.1-13.5 8.1-19.5 11-6 2.9-15.5 6.9-21 8.8-5.5 1.9-14.3 4.4-19.5 5.6-5.2 1.1-15.3 2.5-22.5 3-7.1 0.4-18.8 0.5-26 0-7.1-0.4-17.5-1.7-23-2.8-5.5-1.1-13.6-3.1-18-4.4-4.4-1.4-11.1-3.7-15-5.2-3.8-1.5-10.1-4.3-14-6.3-3.8-1.9-10.6-5.8-15-8.6-4.4-2.9-10.9-7.7-14.5-10.7-3.6-3-12.1-11.1-19-18.1-7.1-7.2-13.6-13-15-13.3-1.8-0.4-5.1 0.8-11.5 4.1-5 2.6-15.3 8.4-23 12.9zm271 123.5c-2.7 2.7-3 3.7-3 9.6 0 6.2 0.2 6.7 3.5 9.8 2 1.9 5.1 3.5 7.3 3.9 2.7 0.5 4.9 0.2 8.2-1.3 3.5-1.5 4.9-3 6.5-6.2 1.1-2.4 2-5.2 2-6.3 0-1.1-0.9-3.8-2-6-1.1-2.2-3-4.6-4.2-5.4-1.3-0.8-3.7-1.7-5.4-2.1-1.7-0.3-4.6-0.3-6.5 0.1-1.9 0.5-4.7 2.2-6.4 3.9zm239 12.8c-21 10.6-25.4 13.3-27.3 16.2-1.6 2.4-2.2 5-2.2 8.3 0 2.6 0.8 6.4 1.8 8.4 1.1 2.3 3.5 4.8 6.7 6.8 2.8 1.8 15.6 8.7 28.5 15.5 12.9 6.7 35 18.3 49 25.8 14 7.4 30.9 16.4 37.5 20 6.6 3.6 23.5 12.8 37.5 20.5 14 7.7 32.9 17.7 42 22.1 9.1 4.5 19.5 9 23.3 9.9 3.7 0.9 11.1 2.2 16.5 2.9 8.3 0.9 11.2 0.9 19.7-0.6 5.5-0.9 14.3-3.1 19.5-4.8 5.2-1.8 16.5-6.7 25-11 8.5-4.3 16.4-8.6 17.6-9.6 1.1-0.9 2.6-2.7 3.2-3.9 0.8-1.6 0.9-2.9 0.2-4.3-0.5-1.1-2.9-3.1-5.2-4.4-2.4-1.3-11.3-6.2-19.8-10.8-8.5-4.7-30.1-16.3-48-25.8-17.9-9.5-35.7-19.1-39.5-21.3-3.8-2.2-14.7-8-24-13-9.3-4.9-26.2-13.8-37.5-19.7-11.3-5.9-25.2-13.3-31-16.5-5.8-3.1-19.7-10.4-31-16-11.3-5.7-22.1-10.6-24-10.9-2.3-0.4-5.1 0.1-8.5 1.5-2.7 1.1-16.2 7.7-30 14.7zm-766.5 16.9c-14.6 7.7-42.5 22.4-62 32.8-19.5 10.3-42.5 22.4-51 27-8.5 4.5-21.8 11.5-29.5 15.5-7.7 4-22.5 11.8-32.9 17.4-10.4 5.5-19.3 10.9-19.7 11.9-0.6 1.1-0.4 2.6 0.6 4.2 0.8 1.4 3.4 3.7 5.8 5.2 2.3 1.5 10.1 5.7 17.2 9.4 7.2 3.7 17.5 8.3 23 10.2 5.5 1.9 14.1 4.2 19 5.1 5 0.9 10.8 1.6 13 1.6 2.2 0 8.1-0.7 13-1.5 5-0.8 11-2.2 13.5-3.1 2.5-0.9 9-3.7 14.5-6.2 5.5-2.5 21.7-10.8 36-18.5 14.3-7.6 39.5-21.1 56-30 16.5-8.8 40.6-21.5 53.5-28.2 12.9-6.7 31.1-16.2 40.3-21.1 9.3-4.9 18.2-10 19.8-11.4 1.9-1.5 3.4-4.1 3.9-6.5 0.6-2.2 0.7-6 0.3-8.5-0.5-3.1-1.6-5.4-3.8-7.4-1.6-1.6-15.5-9.1-30.7-16.7-23.6-11.8-28.5-13.9-32.4-13.9-3.8 0-7.6 1.6-22.7 9.3-10 5.2-30.1 15.7-44.7 23.4zm498.6-1c-1 1-2.4 3-3.2 4.6-0.8 1.5-1.4 4.1-1.4 5.7 0 1.6 0.8 4.6 1.8 6.6 0.9 2 3 4.5 4.7 5.5 1.8 1.1 4.9 1.8 7.5 1.8 2.6 0 5.7-0.7 7.5-1.8 1.7-1 3.8-3.6 4.9-5.7 1.3-2.8 1.7-5 1.2-7.9-0.3-2.2-1.3-5-2.1-6.2-0.8-1.3-2.5-2.9-3.7-3.7-1.3-0.7-3.6-1.6-5.3-1.8-1.7-0.3-4.6-0.1-6.5 0.3-1.9 0.5-4.3 1.7-5.4 2.6zm-127.5 45.1c-2.4 2-5.2 5.4-6.2 7.5-1.3 2.4-1.9 5.8-1.9 10 0 3.8 0.7 7.7 1.9 10.2 0.9 2.2 3.3 5.3 5.2 6.9 1.9 1.6 4.9 3.5 6.7 4.3 1.7 0.7 5.6 1.3 8.5 1.3 2.8 0 7-0.9 9.2-1.8 2.2-1 5.7-3.8 7.7-6.3 2.2-2.5 4.3-6.3 4.9-8.9 0.6-2.5 0.8-6.5 0.4-9-0.4-2.5-1.7-6.3-3-8.5-1.2-2.2-4-5.2-6.1-6.7-2.2-1.4-5.7-3.1-7.9-3.7-2.2-0.6-4.9-1-6-1-1.1 0.1-3.6 0.5-5.5 1-1.9 0.5-5.5 2.6-7.9 4.7zm98 0c-2.5 2-5.3 5.5-6.3 7.7-1 2.3-1.8 6.3-1.8 9.5 0 3.2 0.8 7.2 1.9 9.5 1 2.2 3.7 5.7 5.9 7.8 2.3 2 6.1 4.2 8.5 4.8 2.3 0.6 6.5 0.8 9.2 0.5 2.8-0.3 6.8-1.7 9-3 2.2-1.3 5.2-4.2 6.8-6.5 1.5-2.2 3.2-6.1 3.7-8.6 0.7-2.9 0.7-6.1 0-9.2-0.6-3.4-2.3-6.3-5.3-9.8-3.1-3.5-5.8-5.5-9.3-6.8-2.7-0.9-6.2-1.7-7.9-1.6-1.7 0.1-4.6 0.5-6.5 1-1.9 0.5-5.5 2.6-7.9 4.7zm-40.5 18c-0.4 1.5 0.1 2.9 1.4 4.2 1.1 1.1 2.8 2 3.8 2 0.9 0.1 2.5-0.7 3.4-1.7 1-1 1.8-2.8 1.8-4 0-1.3-1-3-2.2-3.8-1.3-0.8-2.8-1.5-3.3-1.5-0.6 0-1.8 0.6-2.7 1.3-0.9 0.6-1.9 2.2-2.2 3.5zm308.6 61.1c-0.2 34.2-0.2 35.7 1.8 38.9 1.1 1.7 4.8 5 8.2 7.2 3.5 2.2 12.6 7.2 20.3 11 7.7 3.8 17.8 8.2 22.5 9.8 4.7 1.6 13.9 4.2 20.5 5.7 9.2 2.1 15.8 2.8 28 3.3 10.4 0.3 18.8 0.1 24-0.7 4.4-0.7 13-2.5 19-4.1 6-1.5 14.8-4.2 19.5-5.9 4.7-1.7 10-4 11.7-5.1 2.1-1.3 3.3-2.8 3.3-4.2 0.1-1.3-0.7-3-1.7-3.9-1-0.9-13.1-7.6-26.8-14.9-13.8-7.3-35.1-18.8-47.5-25.5-12.4-6.7-31.5-17.1-42.5-23-11-6-24.5-13.4-30-16.5-5.5-3.2-12.8-7.2-16.3-8.9-3.4-1.7-7-3.1-8.1-3.1-1 0-2.7 0.9-3.7 2.1-1.8 2-1.9 4.4-2.2 37.8zm-672.7-7.2c-14.3 7.5-32.3 17.1-40 21.3-7.7 4.3-25.2 13.7-39 21-13.7 7.3-26 14.2-27.3 15.4-1.2 1.1-2.2 2.9-2.2 3.9 0 0.9 1.2 2.5 2.8 3.6 1.5 1 7.2 3.6 12.7 5.8 5.5 2.2 12.3 4.8 15 5.7 2.8 0.8 9.5 2.5 15 3.6 5.5 1.2 15.9 2.4 23 2.7 9.4 0.4 16.1 0.1 24-1.1 6-0.8 14.6-2.5 19-3.6 4.4-1.1 12.3-3.7 17.5-5.7 5.2-2 15.4-6.5 22.5-9.9 7.2-3.5 15.4-7.7 18.3-9.4 3-1.7 5.9-4.4 7-6.2 1.5-2.9 1.7-7.3 2-38.3 0.2-23.1 0-35.9-0.7-37.7-0.9-2.4-1.7-2.8-4.8-2.8-2.8 0-8.5 2.5-21.3 9.1-9.6 5-29.2 15.2-43.5 22.6zm335.5-6.7c-8.5 8.7-11.9 11.5-17.7 14.4-4 2-10.1 4.3-13.5 5.1-3.5 0.8-8.5 1.5-11.3 1.5-2.7 0-8.6-0.7-13-1.5-7.2-1.5-8.2-1.5-10.2-0.1-1.3 0.9-3.2 3.5-4.2 5.9-1.1 2.3-3.8 10.5-6.1 18.2-2.3 7.7-7.9 26.6-12.5 42-4.6 15.4-10.9 37-14 48-3.1 11-8.9 31-13 44.5-4 13.5-9.9 33.7-13 45-3.1 11.3-8.1 27.9-11 37-3 9.1-8.1 26-11.5 37.5-3.4 11.5-11.5 37.2-18.2 57-6.6 19.8-15.8 46-20.4 58.3-4.6 12.2-11.5 30-15.3 39.5-3.8 9.4-9.4 23-12.6 30.2-3.1 7.2-8.4 19.3-11.7 27-3.3 7.7-12.5 27.5-20.4 44-7.9 16.5-15.3 31.5-16.4 33.3-1.2 1.9-3.1 3.4-4.7 3.8-1.9 0.4-5.6-0.5-11.8-2.9-5-1.9-11.7-4-15-4.6-3.3-0.7-10.5-1.6-16-2.1-5.8-0.5-14-0.5-19.5 0.1-5.2 0.5-13.5 2-18.5 3.5-5 1.4-12.1 4.1-16 6.1-3.8 1.9-10.1 5.6-14 8.1-3.8 2.6-9.8 7.5-13.2 11-3.5 3.4-7 7.5-7.8 9.2-0.8 1.7-1.3 3.8-1 4.8 0.2 0.9 1.4 2 2.7 2.4 1.3 0.4 8.4 0.2 15.8-0.4 10-0.8 16.9-0.7 26.5 0.1 7.2 0.7 17.5 2.2 23 3.3 5.5 1.1 13.8 3.4 18.5 5 4.7 1.7 11.4 4.5 15 6.3 3.6 1.8 10.5 6 15.5 9.2 5 3.3 11.9 8.6 15.5 11.9 3.6 3.2 9.8 9.4 13.9 13.9 4 4.4 8.8 9.5 10.7 11.3 2.3 2.1 4.4 3.2 6.4 3.2 1.7 0 8.1-1.6 14.3-3.5 6.1-1.9 17.3-4.6 24.7-6.1 11.7-2.4 15.8-2.8 31-2.7 14.7 0 19.7 0.5 31.5 2.7 7.7 1.5 19.4 4.5 26 6.6 6.6 2.2 15.2 5.5 19 7.3 3.9 1.9 10.8 5.8 15.5 8.7 4.7 2.9 12.1 8 16.5 11.3 4.4 3.4 13 11 19 17.1 6.1 6.1 13.7 14.7 17.1 19.1 3.3 4.4 8.5 12.5 11.6 18 3.2 5.5 7.5 14.3 9.7 19.5 2.2 5.2 5.8 15.6 8.1 23 2.2 7.4 4.5 14.1 5 14.8 0.8 0.9 5 1 18.3 0.5 14-0.5 18.6-0.3 25 1 5.4 1.2 8.3 1.4 9.7 0.7 1.1-0.5 2.5-2 3.1-3.2 0.7-1.3 2.5-7 4.2-12.8 1.6-5.8 4.5-14.5 6.4-19.5 1.9-5 6-13.9 9.1-19.8 3.1-6 9.3-15.7 13.7-21.5 4.4-5.9 12.5-15.2 18-20.8 5.5-5.5 14.5-13.4 20-17.4 5.5-4.1 14.3-9.9 19.5-12.8 5.2-3 14.2-7.3 20-9.7 5.8-2.4 13.9-5.2 18-6.3 4.1-1.2 11.3-2.8 16-3.6 4.7-0.9 13.7-2 20-2.5 6.8-0.5 16.4-0.6 23.5 0 6.6 0.4 17.6 1.9 24.5 3.3 6.9 1.3 17 3.8 22.5 5.5 5.5 1.7 11 3.1 12.3 3.1 1.2 0 3.1-0.5 4.2-1 1.1-0.5 4.6-4.3 7.7-8.2 3.1-4 8.4-10.2 11.8-13.7 3.3-3.4 10-9.3 15-12.9 5-3.6 12.6-8.5 17-10.8 4.4-2.4 11.4-5.6 15.5-7.3 4.1-1.6 11.8-4.1 17-5.6 5.2-1.4 15.8-3.2 23.5-4.1 11.7-1.3 16.9-1.4 31.8-0.5 11.8 0.7 18.4 0.8 19.7 0.1 1.3-0.6 2-2 2-3.7-0.1-2.1-1.8-4.4-6.8-9.3-3.7-3.6-9.9-8.9-13.7-11.8-3.9-2.9-11.5-7.5-17-10.2-5.5-2.7-13.6-5.9-18-7-4.4-1.1-12-2.5-17-3.1-5-0.6-12.6-0.8-17-0.4-4.4 0.4-11.4 1.3-15.5 2.1-4.1 0.7-11.5 2.7-16.5 4.4-5 1.6-10.5 3-12.2 3-2.6 0-3.8-0.7-5.7-3.2-1.3-1.8-6.2-11.4-10.9-21.3-4.7-9.9-12.8-27.5-18-39-5.2-11.5-12.6-28.2-16.5-37-3.8-8.8-10.8-25.7-15.5-37.5-4.7-11.8-11.8-30.5-15.7-41.5-4-11-14.5-41.6-23.2-68-8.7-26.4-20.2-62.2-25.5-79.5-5.2-17.3-11.5-38.2-14-46.5-2.4-8.2-5.9-20.2-7.8-26.5-1.9-6.3-8-27.5-13.5-47-5.6-19.5-12.6-44-15.6-54.5-3-10.5-8.2-27.5-11.6-38-3.3-10.5-6.9-21.4-7.9-24.2-1.4-3.9-2.7-5.7-4.9-6.8-2.7-1.3-3.8-1.3-10 0-3.8 0.8-10.3 1.5-14.2 1.5-4 0-10-0.7-13.3-1.6-3.3-0.9-8.5-2.8-11.5-4.2-3.3-1.6-8.3-5.5-12.5-9.7-3.8-3.9-9.4-9.6-12.2-12.8l-5.3-5.7c-34 0.1-44.6 0.6-46 1.1-1.4 0.6-7.2 5.9-13 11.9zm494.7 266q-7.4 15.5-10.5 18.3c-1.8 1.5-3.9 2.7-4.7 2.7-0.8 0-9 1.6-18.2 3.6-9.3 2-17.8 4.1-19.1 4.8-1.3 0.6-2.5 1.9-2.7 2.9-0.3 0.9 0 2.6 0.5 3.7 0.5 1.1 6.7 6.6 13.6 12.3 7 5.6 13.5 11.5 14.5 13.2 1.1 1.7 1.8 4.9 1.9 7.5 0 2.5-0.7 8.8-1.5 14-0.8 5.2-1.5 11.3-1.5 13.5 0 2.2 0.5 4.6 1.2 5.3 0.7 0.7 2.1 1.2 3.1 1.2 0.9 0 9-3.4 18-7.5 9.6-4.5 17.5-7.5 19.5-7.5 1.8 0 8.9 2.6 16.5 6 7.2 3.4 14.9 6.6 16.9 7.3 3 1 3.9 1 5.3-0.3 0.9-0.9 1.6-3 1.5-5.2 0-2.1-0.9-9.1-2-15.5-1.2-6.5-1.9-13.1-1.6-14.8 0.4-2.1 2.9-5.3 8.3-10.5 4.3-4.1 10.2-9.5 13.1-12 2.9-2.5 5.8-5.7 6.5-7.2 1-2.4 0.9-3.1-0.4-4.5-0.9-1-4.5-2.6-8-3.7-3.5-1-11.9-2.9-18.6-4.2-6.8-1.3-13.2-3-14.4-3.6-1.1-0.7-5.9-9-10.6-18.3-4.7-9.3-9.3-17.8-10.2-18.8-0.9-1-2.5-1.8-3.7-1.7-1.2 0-2.8 0.8-3.7 1.8-0.9 0.9-4.9 8.7-9 17.2zm-929.6 0.6c-4.9 9.3-10 17.7-11.3 18.6-1.3 1-9.7 3.3-18.8 5.1-9.1 1.9-18 4.2-19.7 5.1-2.6 1.3-3.3 2.2-3.3 4.6 0 2.5 1.2 4.1 6.8 8.9 3.7 3.2 9.6 8.3 13.2 11.3 3.7 3 7.3 7.1 8.4 9.3 1.9 4 1.9 4.1-0.2 17.5-1.3 7.4-2.2 14.6-2.2 16 0 1.4 0.5 3.1 1.2 3.8 0.7 0.7 2.4 1.2 3.8 1.2 1.4 0 9.1-3.2 17.3-7 10.6-5 15.8-7 18.7-7 3 0 7.3 1.7 16.8 6.5 7 3.6 14.1 6.8 15.7 7.1 2 0.4 3.6 0.1 4.8-1 1.1-1 1.7-3.1 1.7-5.8 0-2.4-0.7-8.3-1.5-13.3-0.8-5-1.5-10.7-1.5-12.7 0-2.1 0.6-5 1.4-6.5 0.7-1.6 6.8-7.6 13.5-13.5 6.6-6 12.7-11.9 13.4-13.3 1-2.1 0.9-2.7-0.8-4.5-1.3-1.4-6.1-3-14.5-4.9-6.9-1.7-15.1-3.4-18.2-4-3.4-0.7-6.8-2-8.3-3.3-1.4-1.3-5.7-8.8-9.6-16.8-3.9-8-8-15.7-9-17.2-1.1-1.7-2.8-2.8-4.1-2.8-1.3 0-2.8 0.4-3.5 0.8-0.6 0.5-5.2 8.5-10.2 17.8zm18.9 165.4c-5.8 1.2-15.2 3.7-21 5.5-5.8 1.9-17.7 7-26.5 11.4-8.8 4.5-20 11-25 14.6-4.9 3.5-13.5 10.6-18.9 15.7-5.5 5.1-13.5 14-17.8 19.8-4.3 5.8-10.5 15.7-13.7 22-3.3 6.3-7.3 15-9 19.3-1.7 4.2-3.1 9.5-3.1 11.7 0 3.3 0.6 4.5 3.5 7 1.9 1.7 9.9 6.2 17.8 10 7.8 3.9 15.3 7 16.7 7 1.4 0.1 3.3-0.7 4.2-1.7 1-1 3.3-5.8 5.1-10.8 1.9-5 4.9-12.2 6.6-16 1.8-3.8 5.6-10.6 8.6-15 2.9-4.4 7.9-10.9 11.2-14.4 3.2-3.5 9.2-9.1 13.4-12.5 4.2-3.4 12.1-8.4 17.5-11.3 5.5-2.8 13.7-6.5 18.4-8.1 4.7-1.6 13.9-4 20.5-5.2 10.3-1.9 14.4-2.1 29-1.7 14.9 0.4 18.5 0.8 29 3.6 6.8 1.7 16.1 5.1 21.5 7.7 5.2 2.5 13.1 6.7 17.5 9.4 4.4 2.6 9 5 10.3 5.4 1.2 0.3 3.3 0 4.7-0.9 1.6-1 4.8-6.1 8.9-14.2 3.5-7.1 7.1-15 8-17.8 1.4-4.2 1.5-5.5 0.4-8-0.8-1.8-4-4.6-8.3-7.5-3.8-2.5-11.5-6.8-17-9.7-5.5-2.8-14.5-6.8-20-8.8-5.5-2-14.7-4.8-20.5-6.1-5.8-1.3-16.3-2.8-23.5-3.4-7.1-0.5-14.6-0.9-16.5-0.9-1.9 0.1-7.5 0.5-12.5 0.9-4.9 0.4-13.7 1.7-19.5 3zm829.5 1.4c-5.5 1.3-14.5 4.1-20 6.1-5.5 2-15.6 6.6-22.5 10.1-6.9 3.5-14.3 7.9-16.5 9.7-2.2 1.8-4.4 4.7-4.8 6.3-0.6 2.4 0.4 5.5 6.8 18.9 4.2 8.8 8.6 17 9.8 18.3 1.2 1.2 3.2 2.2 4.5 2.2 1.2 0 6.8-2.7 12.5-5.9 5.6-3.3 12.5-6.9 15.2-8.1 2.8-1.2 9.5-3.8 15-5.6 5.5-1.9 15-4.1 21-5 7.9-1.2 14.9-1.5 25-1.1 7.7 0.3 17.4 1.3 21.5 2.2 4.1 0.9 10.9 2.8 15 4.2 4.1 1.3 10.9 4 15 5.9 4.1 2 11.3 6.1 16 9.2 4.7 3.1 12.5 9.6 17.5 14.3 4.9 4.8 11.9 12.6 15.4 17.5 3.5 4.9 8.9 14.1 12 20.4 3.1 6.3 6.4 13.4 7.4 15.8 1.1 2.8 2.6 4.5 4.5 5.2 1.5 0.6 3.6 0.8 4.7 0.4 1.1-0.4 8.3-3.6 16-7.1 7.7-3.5 15-7.4 16.3-8.6 1.7-1.6 2.2-3.3 2.2-6.4 0-2.6-1.4-7.8-3.6-13-2-4.9-6.1-13.3-9.1-18.8-3-5.5-8.1-13.6-11.2-18-3.1-4.4-9.6-12.2-14.6-17.4-4.9-5.1-12.2-11.9-16-15.1-3.8-3.1-11-8.4-16-11.6-4.9-3.2-14.4-8.4-21-11.5-6.6-3.1-16.9-7.3-23-9.3-6-2-15.3-4.5-20.5-5.7-7.8-1.8-13.4-2.2-31-2.5-11.8-0.1-24.2 0.2-27.5 0.7-3.3 0.5-10.5 2-16 3.3zm-189 316.2c-5.5 1.4-13.2 4.1-17 5.9-3.8 1.9-11 6-16 9.3-6.1 3.9-12.1 9.1-18.4 15.8-5.1 5.4-11.3 13.1-13.7 16.9-2.3 3.8-5.5 10.2-6.9 14-1.5 4-2.4 8-2.1 9.3 0.4 1.4 1.4 2.2 2.9 2.2 1.2 0 4-1.1 6.2-2.6 2.2-1.5 15.7-10 30-18.9 14.3-8.9 31.4-19.1 38-22.7 6.6-3.6 19.7-10.7 29-15.7 9.3-5.1 17.7-9.9 18.5-10.6 0.9-0.9 1.2-2 0.8-3-0.5-0.8-2.9-1.9-5.5-2.4-2.7-0.5-8.6-1.2-13.3-1.5-4.7-0.2-11.7 0-15.5 0.5-3.8 0.5-11.5 2.1-17 3.5zm-426.3 0.9c-0.2 1.1 0.3 2.5 1 3.2 0.7 0.6 7.2 4.1 14.3 7.8 7.2 3.7 17.1 9 22 11.8 5 2.8 20.5 12.1 34.5 20.8 14 8.6 30.2 18.7 36 22.3 5.8 3.7 11.2 6.7 12 6.7 0.8 0 2.2-0.7 3-1.6 1.3-1.5 1.3-2.3-0.3-7.3-1-3.2-4.6-10.4-8-16.1-4-6.7-8.9-13.1-13.7-18-4.1-4.2-10.4-9.8-14-12.3-3.6-2.5-9.6-6.4-13.5-8.6-3.8-2.2-10.4-5.1-14.5-6.6-4.1-1.5-11.9-3.6-17.2-4.6-6.5-1.3-13.6-2-21-1.9-6.2 0-13.3 0.6-15.8 1.2-3.2 0.9-4.6 1.8-4.8 3.2zm245.3-1398.9c17.6 0.2 37.2 0.8 43.5 1.4 6.3 0.6 17.8 2 25.5 3.1 7.7 1.1 18.5 2.8 24 3.9 5.5 1 14.1 2.8 19 4 5 1.1 14 3.7 20 5.7 6.1 1.9 14.1 5.2 17.9 7.2 3.8 2 8 5 9.2 6.6 1.3 1.6 2.3 4.4 2.3 6 0 2.1-1 3.9-3.2 6-1.8 1.7-6.6 4.4-10.7 6.2-4.1 1.7-13.1 4.8-20 6.7-6.9 2-18.8 4.7-26.5 6.1-7.7 1.4-20.7 3.4-29 4.5-8.2 1.1-23.5 2.6-34 3.5-10.4 0.8-30 1.5-43.5 1.5-13.5 0-31.7-0.5-40.5-1-8.8-0.6-24.1-1.9-34-3.1-9.9-1.1-26.1-3.6-36-5.5-9.9-2-22.7-5.2-28.5-7.1-5.8-1.9-13-4.8-16-6.3-3-1.5-7-4.4-8.7-6.4-1.8-2-3.3-4.5-3.3-5.6 0-1.1 1.5-3.7 3.4-5.8 1.8-2 6.4-5.4 10.2-7.4 3.8-2 11.2-5 16.4-6.7 5.2-1.7 16.7-4.7 25.5-6.6 8.8-1.9 21.9-4.3 29-5.4 7.2-1.1 19.5-2.7 27.5-3.6 8-0.8 17.7-1.7 21.5-1.9 3.9-0.2 21.4-0.2 39 0z"/>
</svg>